<svg id="svg" version="1.1" xmlns="http://www.w3.org/2000/svg" xmlns:xlink="http://www.w3.org/1999/xlink" width="400" height="400" viewBox="0, 0, 400,400"><g id="svgg"><path id="path0" d="M256.400 220.319 L 256.400 266.243 257.402 268.254 C 257.953 269.359,258.853 270.686,259.402 271.202 C 259.951 271.718,260.400 272.301,260.400 272.498 C 260.400 273.489,262.664 274.800,264.374 274.800 C 265.048 274.800,265.600 274.980,265.600 275.200 C 265.600 275.461,272.592 275.600,285.776 275.600 C 298.796 275.600,306.040 275.458,306.200 275.200 C 306.336 274.980,306.842 274.782,307.324 274.761 C 309.594 274.659,312.921 272.278,314.256 269.800 L 315.548 267.400 315.574 255.700 L 315.600 244.000 306.654 244.000 C 298.314 244.000,297.639 243.946,296.691 243.200 C 296.131 242.760,295.502 242.400,295.291 242.400 C 293.396 242.400,291.615 237.805,292.409 234.966 C 293.385 231.483,294.244 231.233,305.681 231.107 L 315.400 231.000 315.507 220.300 L 315.613 209.600 306.456 209.600 C 298.911 209.600,297.212 209.497,296.813 209.015 C 296.546 208.694,295.952 208.312,295.493 208.166 C 292.818 207.317,291.282 200.081,293.447 198.526 C 293.861 198.228,294.513 197.721,294.896 197.399 C 295.459 196.927,297.503 196.793,305.496 196.707 L 315.400 196.600 315.400 185.600 L 315.400 174.600 285.900 174.497 L 256.400 174.395 256.400 220.319 M47.200 321.399 L 47.200 355.200 106.402 355.200 L 165.605 355.200 165.502 321.500 L 165.400 287.800 106.300 287.699 L 47.200 287.597 47.200 321.399 " stroke="none" fill="#23c35b" fill-rule="evenodd"></path><path id="path1" d="M236.900 0.286 C 236.185 0.377,235.600 0.619,235.600 0.825 C 235.600 1.031,235.326 1.200,234.991 1.200 C 234.199 1.200,230.000 5.399,230.000 6.191 C 230.000 6.526,229.820 6.800,229.600 6.800 C 229.380 6.800,229.200 7.160,229.200 7.600 C 229.200 8.040,229.020 8.400,228.800 8.400 C 228.543 8.400,228.400 12.267,228.400 19.200 C 228.400 26.133,228.543 30.000,228.800 30.000 C 229.020 30.000,229.200 30.360,229.200 30.800 C 229.200 31.240,229.380 31.600,229.600 31.600 C 229.820 31.600,230.000 31.920,230.000 32.312 C 230.000 32.703,230.360 33.283,230.800 33.600 C 231.240 33.917,231.600 34.497,231.600 34.888 C 231.600 35.280,231.888 35.600,232.240 35.600 C 232.591 35.600,233.383 36.140,234.000 36.800 C 234.689 37.538,235.521 38.000,236.160 38.000 C 236.732 38.000,237.200 38.180,237.200 38.400 C 237.200 38.620,237.740 38.800,238.400 38.800 C 239.060 38.800,239.600 38.980,239.600 39.200 C 239.600 39.459,244.267 39.600,252.800 39.600 L 266.000 39.600 266.000 52.800 L 266.000 66.000 245.000 66.000 C 231.267 66.000,224.000 66.138,224.000 66.400 C 224.000 66.620,223.280 66.800,222.400 66.800 C 221.520 66.800,220.800 66.980,220.800 67.200 C 220.800 67.420,220.440 67.600,220.000 67.600 C 219.560 67.600,219.200 67.780,219.200 68.000 C 219.200 68.220,218.880 68.400,218.488 68.400 C 218.097 68.400,217.517 68.760,217.200 69.200 C 216.883 69.640,216.390 70.000,216.104 70.000 C 215.573 70.000,210.400 74.958,210.400 75.467 C 210.400 75.622,210.025 76.147,209.567 76.635 C 209.109 77.122,208.635 78.259,208.515 79.161 C 208.394 80.062,208.138 80.800,207.947 80.800 C 207.756 80.800,207.600 81.340,207.600 82.000 C 207.600 82.660,207.420 83.200,207.200 83.200 C 206.951 83.200,206.800 85.533,206.800 89.400 C 206.800 93.267,206.951 95.600,207.200 95.600 C 207.420 95.600,207.600 96.140,207.600 96.800 C 207.600 97.460,207.764 98.000,207.965 98.000 C 208.166 98.000,208.451 98.720,208.600 99.600 C 208.749 100.480,209.013 101.200,209.187 101.200 C 209.361 101.200,209.727 101.740,210.000 102.400 C 210.273 103.060,210.655 103.600,210.849 103.600 C 211.042 103.600,211.200 103.884,211.200 104.231 C 211.200 105.073,214.284 108.001,215.685 108.490 C 216.298 108.703,216.800 109.041,216.800 109.239 C 216.800 109.438,217.160 109.600,217.600 109.600 C 218.040 109.600,218.400 109.780,218.400 110.000 C 218.400 110.220,218.760 110.400,219.200 110.400 C 219.640 110.400,220.000 110.580,220.000 110.800 C 220.000 111.020,220.540 111.200,221.200 111.200 C 221.860 111.200,222.400 111.380,222.400 111.600 C 222.400 111.820,222.940 112.000,223.600 112.000 C 224.260 112.000,224.800 112.180,224.800 112.400 C 224.800 112.655,228.133 112.800,233.998 112.800 L 243.196 112.800 243.344 190.700 C 243.485 264.678,243.588 272.400,244.440 272.400 C 244.638 272.400,244.800 272.760,244.800 273.200 C 244.800 273.640,244.980 274.000,245.200 274.000 C 245.420 274.000,245.600 274.270,245.600 274.600 C 245.600 274.930,245.780 275.200,246.000 275.200 C 246.220 275.200,246.400 275.560,246.400 276.000 C 246.400 276.440,246.580 276.800,246.800 276.800 C 247.020 276.800,247.200 277.073,247.200 277.406 C 247.200 278.195,253.805 284.800,254.594 284.800 C 254.927 284.800,255.200 284.980,255.200 285.200 C 255.200 285.420,255.560 285.600,256.000 285.600 C 256.440 285.600,256.800 285.780,256.800 286.000 C 256.800 286.220,257.160 286.400,257.600 286.400 C 258.040 286.400,258.400 286.580,258.400 286.800 C 258.400 287.020,258.773 287.200,259.229 287.200 C 261.147 287.200,261.200 287.548,261.200 300.171 C 261.200 307.790,261.342 312.000,261.600 312.000 C 261.820 312.000,262.000 312.720,262.000 313.600 C 262.000 314.480,262.180 315.200,262.400 315.200 C 262.620 315.200,262.800 315.560,262.800 316.000 C 262.800 316.440,262.980 316.800,263.200 316.800 C 263.420 316.800,263.600 317.073,263.600 317.407 C 263.600 318.199,268.601 323.200,269.393 323.200 C 269.727 323.200,270.000 323.380,270.000 323.600 C 270.000 323.820,270.540 324.000,271.200 324.000 C 271.860 324.000,272.400 324.180,272.400 324.400 C 272.400 324.635,273.800 324.800,275.800 324.800 L 279.200 324.800 279.200 357.200 C 279.200 378.533,279.337 389.600,279.600 389.600 C 279.820 389.600,280.000 389.960,280.000 390.400 C 280.000 390.840,280.172 391.200,280.382 391.200 C 280.592 391.200,281.214 391.650,281.764 392.200 C 282.314 392.750,283.222 393.200,283.782 393.200 C 284.342 393.200,284.800 393.380,284.800 393.600 C 284.800 393.820,285.340 394.000,286.000 394.000 C 286.660 394.000,287.200 393.820,287.200 393.600 C 287.200 393.380,287.740 393.200,288.400 393.200 C 289.060 393.200,289.600 393.020,289.600 392.800 C 289.600 392.580,289.957 392.400,290.392 392.400 C 290.904 392.400,291.274 392.046,291.436 391.400 C 291.574 390.850,291.847 390.400,292.043 390.400 C 292.249 390.400,292.400 376.541,292.400 357.600 L 292.400 324.800 295.776 324.800 C 297.633 324.800,299.264 324.620,299.400 324.400 C 299.536 324.180,300.177 324.000,300.824 324.000 C 301.471 324.000,302.000 323.820,302.000 323.600 C 302.000 323.380,302.320 323.200,302.712 323.200 C 303.103 323.200,303.683 322.840,304.000 322.400 C 304.317 321.960,304.831 321.600,305.142 321.600 C 305.719 321.600,307.599 319.666,307.600 319.071 C 307.600 318.891,307.870 318.473,308.200 318.143 C 308.530 317.813,308.800 317.196,308.800 316.771 C 308.800 316.347,308.980 316.000,309.200 316.000 C 309.420 316.000,309.600 315.460,309.600 314.800 C 309.600 314.140,309.780 313.600,310.000 313.600 C 310.258 313.600,310.400 309.124,310.400 300.971 C 310.400 287.290,310.414 287.200,312.571 287.200 C 313.137 287.200,313.600 287.020,313.600 286.800 C 313.600 286.580,313.960 286.400,314.400 286.400 C 314.840 286.400,315.200 286.220,315.200 286.000 C 315.200 285.780,315.560 285.600,316.000 285.600 C 316.440 285.600,316.800 285.420,316.800 285.200 C 316.800 284.980,317.120 284.800,317.512 284.800 C 317.903 284.800,318.483 284.440,318.800 284.000 C 319.117 283.560,319.613 283.200,319.902 283.200 C 320.532 283.200,323.200 280.608,323.200 279.995 C 323.200 279.758,323.650 279.114,324.200 278.564 C 324.750 278.014,325.200 277.212,325.200 276.782 C 325.200 276.352,325.380 276.000,325.600 276.000 C 325.820 276.000,326.000 275.730,326.000 275.400 C 326.000 275.070,326.180 274.800,326.400 274.800 C 326.620 274.800,326.800 274.440,326.800 274.000 C 326.800 273.560,326.980 273.200,327.200 273.200 C 327.420 273.200,327.600 272.660,327.600 272.000 C 327.600 271.340,327.780 270.800,328.000 270.800 C 328.265 270.800,328.400 244.200,328.400 191.800 L 328.400 112.800 337.800 112.800 C 343.800 112.800,347.200 112.655,347.200 112.400 C 347.200 112.180,347.920 112.000,348.800 112.000 C 349.680 112.000,350.400 111.820,350.400 111.600 C 350.400 111.380,350.760 111.200,351.200 111.200 C 351.640 111.200,352.000 111.020,352.000 110.800 C 352.000 110.580,352.360 110.400,352.800 110.400 C 353.240 110.400,353.600 110.220,353.600 110.000 C 353.600 109.780,353.960 109.600,354.400 109.600 C 354.840 109.600,355.200 109.420,355.200 109.200 C 355.200 108.980,355.524 108.800,355.919 108.800 C 356.707 108.800,361.200 104.267,361.200 103.471 C 361.200 103.199,361.560 102.717,362.000 102.400 C 362.440 102.083,362.800 101.503,362.800 101.112 C 362.800 100.720,362.980 100.400,363.200 100.400 C 363.420 100.400,363.600 100.040,363.600 99.600 C 363.600 99.160,363.780 98.800,364.000 98.800 C 364.220 98.800,364.400 98.260,364.400 97.600 C 364.400 96.940,364.580 96.400,364.800 96.400 C 365.020 96.400,365.200 95.500,365.200 94.400 C 365.200 93.300,365.380 92.400,365.600 92.400 C 365.831 92.400,366.000 91.133,366.000 89.400 C 366.000 87.667,365.831 86.400,365.600 86.400 C 365.380 86.400,365.200 85.500,365.200 84.400 C 365.200 83.300,365.020 82.400,364.800 82.400 C 364.580 82.400,364.400 81.860,364.400 81.200 C 364.400 80.540,364.220 80.000,364.000 80.000 C 363.780 80.000,363.600 79.640,363.600 79.200 C 363.600 78.760,363.420 78.400,363.200 78.400 C 362.980 78.400,362.800 78.040,362.800 77.600 C 362.800 77.160,362.620 76.800,362.400 76.800 C 362.180 76.800,362.000 76.440,362.000 76.000 C 362.000 75.560,361.826 75.200,361.613 75.200 C 361.221 75.200,359.741 73.736,357.200 70.835 C 356.430 69.956,355.485 69.229,355.100 69.218 C 354.715 69.208,354.400 69.020,354.400 68.800 C 354.400 68.580,354.040 68.400,353.600 68.400 C 353.160 68.400,352.800 68.220,352.800 68.000 C 352.800 67.780,352.440 67.600,352.000 67.600 C 351.560 67.600,351.200 67.420,351.200 67.200 C 351.200 66.980,350.660 66.800,350.000 66.800 C 349.340 66.800,348.800 66.620,348.800 66.400 C 348.800 66.138,341.400 66.000,327.400 66.000 L 306.000 66.000 306.000 52.800 L 306.000 39.600 319.200 39.600 C 327.733 39.600,332.400 39.459,332.400 39.200 C 332.400 38.980,333.120 38.800,334.000 38.800 C 334.880 38.800,335.600 38.620,335.600 38.400 C 335.600 38.180,335.960 38.000,336.400 38.000 C 336.840 38.000,337.200 37.820,337.200 37.600 C 337.200 37.380,337.484 37.200,337.831 37.200 C 338.707 37.200,341.600 34.104,341.600 33.167 C 341.600 32.745,341.780 32.400,342.000 32.400 C 342.220 32.400,342.400 32.040,342.400 31.600 C 342.400 31.160,342.580 30.800,342.800 30.800 C 343.057 30.800,343.200 26.667,343.200 19.200 C 343.200 11.733,343.057 7.600,342.800 7.600 C 342.580 7.600,342.400 7.240,342.400 6.800 C 342.400 6.360,342.223 6.000,342.008 6.000 C 341.792 6.000,341.491 5.507,341.340 4.904 C 341.023 3.641,340.295 2.800,339.517 2.800 C 339.220 2.800,338.717 2.440,338.400 2.000 C 338.083 1.560,337.518 1.200,337.145 1.200 C 336.772 1.200,336.392 0.975,336.300 0.700 C 336.140 0.221,240.563 -0.177,236.900 0.286 M65.700 5.016 C 64.935 5.817,64.400 6.793,64.400 7.389 C 64.400 7.945,64.220 8.400,64.000 8.400 C 63.735 8.400,63.600 25.341,63.600 58.424 C 63.600 91.671,63.734 108.364,64.000 108.200 C 64.247 108.048,64.400 108.729,64.400 109.976 C 64.400 111.089,64.580 112.000,64.800 112.000 C 65.020 112.000,65.200 112.540,65.200 113.200 C 65.200 113.860,65.380 114.400,65.600 114.400 C 65.820 114.400,66.000 114.900,66.000 115.512 C 66.000 116.165,66.330 116.861,66.800 117.200 C 67.240 117.517,67.600 118.057,67.600 118.400 C 67.600 118.743,67.960 119.283,68.400 119.600 C 68.840 119.917,69.200 120.419,69.200 120.714 C 69.200 121.510,73.135 125.200,73.984 125.200 C 74.386 125.200,74.817 125.468,74.943 125.795 C 75.068 126.122,75.898 126.705,76.785 127.089 C 77.673 127.474,78.400 127.926,78.400 128.094 C 78.400 128.262,78.940 128.400,79.600 128.400 C 80.260 128.400,80.800 128.580,80.800 128.800 C 80.800 129.020,81.160 129.200,81.600 129.200 C 82.384 129.200,82.400 129.467,82.400 142.600 C 82.400 151.267,82.541 156.000,82.800 156.000 C 83.020 156.000,83.200 156.360,83.200 156.800 C 83.200 157.240,83.380 157.600,83.600 157.600 C 83.820 157.600,84.000 157.870,84.000 158.200 C 84.000 158.530,84.180 158.800,84.400 158.800 C 84.620 158.800,84.800 159.075,84.800 159.411 C 84.800 160.204,88.196 163.600,88.989 163.600 C 89.325 163.600,89.600 163.780,89.600 164.000 C 89.600 164.220,89.960 164.400,90.400 164.400 C 90.840 164.400,91.201 164.535,91.203 164.700 C 91.211 165.445,93.632 166.000,96.880 166.000 L 100.400 166.000 100.400 172.200 L 100.400 178.400 78.200 178.400 C 63.667 178.400,56.000 178.538,56.000 178.800 C 56.000 179.020,55.460 179.200,54.800 179.200 C 54.140 179.200,53.600 179.380,53.600 179.600 C 53.600 179.820,53.100 180.000,52.488 180.000 C 51.835 180.000,51.139 180.330,50.800 180.800 C 50.483 181.240,49.990 181.600,49.705 181.600 C 49.079 181.600,43.454 187.219,43.270 188.028 C 43.199 188.343,42.974 188.660,42.770 188.733 C 42.567 188.807,42.400 189.176,42.400 189.553 C 42.400 189.931,42.175 190.465,41.900 190.740 C 39.920 192.720,41.633 207.795,44.093 210.047 C 44.482 210.403,44.800 210.904,44.800 211.160 C 44.800 211.799,47.448 214.400,48.098 214.400 C 48.387 214.400,48.883 214.760,49.200 215.200 C 49.517 215.640,50.097 216.000,50.488 216.000 C 50.880 216.000,51.200 216.180,51.200 216.400 C 51.200 216.620,51.483 216.800,51.829 216.800 C 53.098 216.800,53.600 217.869,53.600 220.571 C 53.600 222.057,53.426 223.200,53.200 223.200 C 52.974 223.200,52.800 224.333,52.800 225.800 C 52.800 227.267,52.626 228.400,52.400 228.400 C 52.180 228.400,52.000 229.300,52.000 230.400 C 52.000 231.500,51.820 232.400,51.600 232.400 C 51.380 232.400,51.200 233.120,51.200 234.000 C 51.200 234.880,51.020 235.600,50.800 235.600 C 50.580 235.600,50.400 236.140,50.400 236.800 C 50.400 237.460,50.220 238.000,50.000 238.000 C 49.780 238.000,49.600 238.540,49.600 239.200 C 49.600 239.860,49.420 240.400,49.200 240.400 C 48.980 240.400,48.800 240.724,48.800 241.120 C 48.800 242.014,47.906 243.993,47.500 243.997 C 47.335 243.999,47.200 244.540,47.200 245.200 C 47.200 245.860,47.020 246.400,46.800 246.400 C 46.580 246.400,46.400 246.760,46.400 247.200 C 46.400 247.640,46.220 248.000,46.000 248.000 C 45.780 248.000,45.600 248.360,45.600 248.800 C 45.600 249.240,45.420 249.600,45.200 249.600 C 44.980 249.600,44.800 249.960,44.800 250.400 C 44.800 250.840,44.620 251.200,44.400 251.200 C 44.180 251.200,44.000 251.472,44.000 251.805 C 44.000 252.503,43.188 254.062,42.600 254.494 C 42.380 254.656,42.332 254.791,42.494 254.794 C 42.655 254.797,42.451 255.475,42.039 256.300 C 41.628 257.125,41.047 258.385,40.748 259.100 C 40.449 259.815,40.069 260.400,39.902 260.400 C 39.736 260.400,39.600 260.760,39.600 261.200 C 39.600 261.640,39.420 262.000,39.200 262.000 C 38.980 262.000,38.800 262.540,38.800 263.200 C 38.800 263.860,38.620 264.400,38.400 264.400 C 38.180 264.400,38.000 264.940,38.000 265.600 C 38.000 266.260,37.820 266.800,37.600 266.800 C 37.380 266.800,37.200 267.340,37.200 268.000 C 37.200 268.660,37.020 269.200,36.800 269.200 C 36.580 269.200,36.400 269.740,36.400 270.400 C 36.400 271.060,36.220 271.600,36.000 271.600 C 35.780 271.600,35.600 272.511,35.600 273.624 C 35.600 274.871,35.447 275.552,35.200 275.400 C 34.946 275.243,34.800 276.329,34.800 278.376 C 34.800 280.259,34.634 281.600,34.400 281.600 C 34.136 281.600,34.000 297.733,34.000 329.200 C 34.000 360.667,34.136 376.800,34.400 376.800 C 34.622 376.800,34.800 377.867,34.800 379.200 C 34.800 380.533,34.978 381.600,35.200 381.600 C 35.420 381.600,35.600 382.140,35.600 382.800 C 35.600 383.460,35.780 384.000,36.000 384.000 C 36.220 384.000,36.400 384.360,36.400 384.800 C 36.400 385.240,36.580 385.600,36.800 385.600 C 37.020 385.600,37.200 385.960,37.200 386.400 C 37.200 386.840,37.380 387.200,37.600 387.200 C 37.820 387.200,38.000 387.488,38.000 387.840 C 38.000 388.191,38.540 388.983,39.200 389.600 C 39.860 390.217,40.400 390.842,40.400 390.989 C 40.400 391.137,40.625 391.483,40.900 391.758 C 41.175 392.034,41.850 392.829,42.400 393.526 C 42.950 394.223,43.675 394.794,44.012 394.796 C 44.348 394.798,44.883 395.160,45.200 395.600 C 45.517 396.040,46.057 396.400,46.400 396.400 C 46.743 396.400,47.283 396.760,47.600 397.200 C 47.917 397.640,48.497 398.000,48.888 398.000 C 49.280 398.000,49.600 398.180,49.600 398.400 C 49.600 398.620,50.125 398.800,50.767 398.800 C 51.408 398.800,52.008 399.025,52.100 399.300 C 52.345 400.035,160.855 400.035,161.100 399.300 C 161.192 399.025,161.612 398.800,162.033 398.800 C 162.455 398.800,162.800 398.620,162.800 398.400 C 162.800 398.180,163.160 398.000,163.600 398.000 C 164.040 398.000,164.400 397.820,164.400 397.600 C 164.400 397.380,164.720 397.200,165.112 397.200 C 165.503 397.200,166.083 396.840,166.400 396.400 C 166.717 395.960,167.199 395.600,167.472 395.600 C 168.009 395.600,174.000 389.957,174.000 389.451 C 174.000 389.282,174.270 388.873,174.600 388.543 C 174.930 388.213,175.200 387.596,175.200 387.171 C 175.200 386.747,175.380 386.400,175.600 386.400 C 175.820 386.400,176.000 386.040,176.000 385.600 C 176.000 385.160,176.180 384.800,176.400 384.800 C 176.620 384.800,176.800 384.260,176.800 383.600 C 176.800 382.940,176.980 382.400,177.200 382.400 C 177.420 382.400,177.600 381.680,177.600 380.800 C 177.600 379.920,177.780 379.200,178.000 379.200 C 178.265 379.200,178.400 362.133,178.400 328.800 C 178.400 295.467,178.265 278.400,178.000 278.400 C 177.780 278.400,177.600 277.410,177.600 276.200 C 177.600 274.990,177.420 274.000,177.200 274.000 C 176.980 274.000,176.800 273.280,176.800 272.400 C 176.800 271.520,176.620 270.800,176.400 270.800 C 176.180 270.800,176.000 270.080,176.000 269.200 C 176.000 268.320,175.843 267.600,175.652 267.600 C 175.460 267.600,175.184 266.700,175.038 265.600 C 174.892 264.500,174.599 263.600,174.386 263.600 C 174.174 263.600,174.000 263.060,174.000 262.400 C 174.000 261.740,173.820 261.200,173.600 261.200 C 173.380 261.200,173.200 260.829,173.200 260.376 C 173.200 259.923,173.020 259.664,172.800 259.800 C 172.580 259.936,172.400 259.677,172.400 259.224 C 172.400 258.771,172.220 258.400,172.000 258.400 C 171.780 258.400,171.600 258.040,171.600 257.600 C 171.600 257.160,171.420 256.800,171.200 256.800 C 170.980 256.800,170.800 256.440,170.800 256.000 C 170.800 255.560,170.620 255.200,170.400 255.200 C 170.180 255.200,170.000 254.840,170.000 254.400 C 170.000 253.960,169.820 253.600,169.600 253.600 C 169.380 253.600,169.200 253.240,169.200 252.800 C 169.200 252.360,169.020 252.000,168.800 252.000 C 168.580 252.000,168.400 251.640,168.400 251.200 C 168.400 250.760,168.220 250.400,168.000 250.400 C 167.780 250.400,167.600 250.040,167.600 249.600 C 167.600 249.160,167.420 248.800,167.200 248.800 C 166.980 248.800,166.800 248.440,166.800 248.000 C 166.800 247.560,166.620 247.200,166.400 247.200 C 166.180 247.200,166.000 246.840,166.000 246.400 C 166.000 245.960,165.820 245.600,165.600 245.600 C 165.380 245.600,165.200 245.245,165.200 244.812 C 165.200 244.379,164.840 243.383,164.400 242.600 C 163.960 241.817,163.600 240.821,163.600 240.388 C 163.600 239.955,163.420 239.600,163.200 239.600 C 162.980 239.600,162.800 239.060,162.800 238.400 C 162.800 237.740,162.620 237.200,162.400 237.200 C 162.180 237.200,162.000 236.480,162.000 235.600 C 162.000 234.720,161.820 234.000,161.600 234.000 C 161.380 234.000,161.200 233.280,161.200 232.400 C 161.200 231.520,161.020 230.800,160.800 230.800 C 160.580 230.800,160.400 229.821,160.400 228.624 C 160.400 227.427,160.220 226.336,160.000 226.200 C 159.780 226.064,159.600 224.433,159.600 222.576 C 159.600 220.592,159.435 219.200,159.200 219.200 C 158.980 219.200,158.800 218.840,158.800 218.400 C 158.800 217.867,159.067 217.600,159.600 217.600 C 160.040 217.600,160.400 217.420,160.400 217.200 C 160.400 216.980,160.760 216.800,161.200 216.800 C 161.640 216.800,162.000 216.620,162.000 216.400 C 162.000 216.180,162.360 216.000,162.800 216.000 C 163.240 216.000,163.600 215.820,163.600 215.600 C 163.600 215.380,163.874 215.200,164.209 215.200 C 164.950 215.200,169.200 211.025,169.200 210.297 C 169.200 210.011,169.560 209.517,170.000 209.200 C 170.440 208.883,170.800 208.393,170.800 208.112 C 170.800 207.830,170.980 207.600,171.200 207.600 C 171.420 207.600,171.600 207.060,171.600 206.400 C 171.600 205.740,171.780 205.200,172.000 205.200 C 172.220 205.200,172.400 204.300,172.400 203.200 C 172.400 202.100,172.580 201.200,172.800 201.200 C 173.025 201.200,173.200 200.075,173.200 198.624 C 173.200 197.207,173.020 195.936,172.800 195.800 C 172.580 195.664,172.400 194.879,172.400 194.056 C 172.400 192.533,171.644 190.409,171.100 190.403 C 170.935 190.401,170.800 190.040,170.800 189.600 C 170.800 189.160,170.620 188.800,170.400 188.800 C 170.180 188.800,170.000 188.480,170.000 188.088 C 170.000 187.697,169.640 187.117,169.200 186.800 C 168.760 186.483,168.400 185.985,168.400 185.694 C 168.400 185.044,166.609 183.200,165.979 183.200 C 165.727 183.200,165.017 182.660,164.400 182.000 C 163.783 181.340,162.991 180.800,162.640 180.800 C 162.288 180.800,162.000 180.620,162.000 180.400 C 162.000 180.180,161.460 180.000,160.800 180.000 C 160.140 180.000,159.600 179.820,159.600 179.600 C 159.600 179.380,159.150 179.200,158.600 179.200 C 158.050 179.200,157.600 179.020,157.600 178.800 C 157.600 178.538,150.000 178.400,135.600 178.400 L 113.600 178.400 113.600 172.200 L 113.600 166.000 117.200 166.000 C 119.333 166.000,120.800 165.837,120.800 165.600 C 120.800 165.380,121.300 165.200,121.912 165.200 C 122.565 165.200,123.261 164.870,123.600 164.400 C 123.917 163.960,124.321 163.600,124.497 163.600 C 124.968 163.600,129.200 159.288,129.200 158.809 C 129.200 158.584,129.380 158.400,129.600 158.400 C 129.820 158.400,130.000 157.860,130.000 157.200 C 130.000 156.540,130.180 156.000,130.400 156.000 C 130.659 156.000,130.800 151.267,130.800 142.600 C 130.800 129.467,130.816 129.200,131.600 129.200 C 132.040 129.200,132.400 129.020,132.400 128.800 C 132.400 128.580,132.940 128.400,133.600 128.400 C 134.260 128.400,134.800 128.220,134.800 128.000 C 134.800 127.780,135.160 127.600,135.600 127.600 C 136.040 127.600,136.400 127.420,136.400 127.200 C 136.400 126.980,136.720 126.800,137.112 126.800 C 137.503 126.800,138.083 126.440,138.400 126.000 C 138.717 125.560,139.241 125.200,139.564 125.200 C 140.266 125.200,144.800 120.589,144.800 119.875 C 144.800 119.601,145.160 119.117,145.600 118.800 C 146.040 118.483,146.400 117.903,146.400 117.512 C 146.400 117.120,146.580 116.800,146.800 116.800 C 147.020 116.800,147.200 116.440,147.200 116.000 C 147.200 115.560,147.380 115.200,147.600 115.200 C 147.820 115.200,148.000 114.660,148.000 114.000 C 148.000 113.340,148.180 112.800,148.400 112.800 C 148.620 112.800,148.800 112.080,148.800 111.200 C 148.800 110.320,148.980 109.600,149.200 109.600 C 149.465 109.600,149.600 92.333,149.600 58.600 C 149.600 24.867,149.465 7.600,149.200 7.600 C 148.980 7.600,148.800 7.324,148.800 6.987 C 148.800 5.093,146.161 3.600,142.813 3.600 C 140.938 3.600,139.600 3.767,139.600 4.000 C 139.600 4.220,139.317 4.400,138.971 4.400 C 138.163 4.400,137.200 5.363,137.200 6.171 C 137.200 6.517,137.020 6.800,136.800 6.800 C 136.540 6.800,136.400 12.267,136.400 22.400 L 136.400 38.000 125.989 38.000 L 115.579 38.000 113.789 39.789 C 112.017 41.562,110.960 47.200,112.400 47.200 C 112.620 47.200,112.800 47.483,112.800 47.829 C 112.800 48.637,113.763 49.600,114.571 49.600 C 114.917 49.600,115.200 49.780,115.200 50.000 C 115.200 50.220,115.560 50.400,116.000 50.400 C 116.440 50.400,116.800 50.580,116.800 50.800 C 116.800 51.056,120.333 51.200,126.600 51.200 L 136.400 51.200 136.400 61.800 L 136.400 72.400 125.989 72.400 L 115.579 72.400 113.789 74.189 C 112.017 75.962,110.960 81.600,112.400 81.600 C 112.620 81.600,112.800 81.883,112.800 82.229 C 112.800 83.037,113.763 84.000,114.571 84.000 C 114.917 84.000,115.200 84.180,115.200 84.400 C 115.200 84.620,115.740 84.800,116.400 84.800 C 117.060 84.800,117.600 84.980,117.600 85.200 C 117.600 85.455,121.000 85.600,127.000 85.600 L 136.400 85.600 136.400 96.600 C 136.400 103.667,136.257 107.600,136.000 107.600 C 135.780 107.600,135.600 108.151,135.600 108.824 C 135.600 109.537,135.433 109.944,135.200 109.800 C 134.980 109.664,134.800 109.838,134.800 110.187 C 134.800 110.948,131.440 114.400,130.699 114.400 C 130.412 114.400,129.917 114.760,129.600 115.200 C 129.256 115.677,128.565 116.000,127.888 116.000 C 127.233 116.000,126.857 116.169,127.000 116.400 C 127.164 116.665,120.471 116.800,107.224 116.800 C 94.141 116.800,87.200 116.661,87.200 116.400 C 87.200 116.180,86.660 116.000,86.000 116.000 C 85.340 116.000,84.800 115.820,84.800 115.600 C 84.800 115.380,84.440 115.200,84.000 115.200 C 83.560 115.200,83.200 115.020,83.200 114.800 C 83.200 114.580,82.924 114.400,82.587 114.400 C 81.791 114.400,79.200 111.809,79.200 111.013 C 79.200 110.676,79.065 110.399,78.900 110.397 C 78.416 110.392,77.600 108.336,77.600 107.120 C 77.600 106.504,77.420 106.000,77.200 106.000 C 76.935 106.000,76.800 89.200,76.800 56.400 C 76.800 23.600,76.665 6.800,76.400 6.800 C 76.180 6.800,76.000 6.517,76.000 6.171 C 76.000 5.453,75.066 4.400,74.429 4.400 C 74.193 4.400,74.000 4.220,74.000 4.000 C 74.000 2.775,67.024 3.629,65.700 5.016 M328.400 12.400 C 328.400 12.620,328.760 12.800,329.200 12.800 C 329.969 12.800,330.000 13.067,330.000 19.600 L 330.000 26.400 286.344 26.400 C 245.236 26.400,242.657 26.359,242.157 25.700 C 241.171 24.401,241.390 12.800,242.400 12.800 C 242.840 12.800,243.200 12.620,243.200 12.400 C 243.200 12.136,257.667 12.000,285.800 12.000 C 313.933 12.000,328.400 12.136,328.400 12.400 M292.400 52.800 L 292.400 66.000 285.800 66.000 L 279.200 66.000 279.200 52.800 L 279.200 39.600 285.800 39.600 L 292.400 39.600 292.400 52.800 M341.800 78.800 C 341.936 79.020,342.847 79.200,343.824 79.200 C 344.801 79.200,345.600 79.380,345.600 79.600 C 345.600 79.820,345.874 80.000,346.209 80.000 C 347.001 80.000,351.200 84.199,351.200 84.991 C 351.200 85.326,351.380 85.600,351.600 85.600 C 351.820 85.600,352.000 86.140,352.000 86.800 C 352.000 87.460,352.180 88.000,352.400 88.000 C 352.620 88.000,352.800 88.540,352.800 89.200 C 352.800 89.860,352.620 90.400,352.400 90.400 C 352.180 90.400,352.000 91.028,352.000 91.797 C 352.000 92.760,351.752 93.348,351.200 93.693 C 350.760 93.968,350.400 94.425,350.400 94.710 C 350.400 95.433,347.758 98.000,347.013 98.000 C 346.676 98.000,346.400 98.180,346.400 98.400 C 346.400 98.620,346.040 98.800,345.600 98.800 C 345.160 98.800,344.800 98.980,344.800 99.200 C 344.800 99.465,325.000 99.600,286.200 99.600 C 247.400 99.600,227.600 99.465,227.600 99.200 C 227.600 98.980,227.072 98.800,226.427 98.800 C 225.605 98.800,225.178 98.560,225.000 98.000 C 224.860 97.560,224.475 97.200,224.144 97.200 C 223.396 97.200,222.400 96.239,222.400 95.517 C 222.400 95.220,222.040 94.717,221.600 94.400 C 221.160 94.083,220.800 93.493,220.800 93.088 C 220.800 92.684,220.620 92.464,220.400 92.600 C 220.146 92.757,220.000 91.671,220.000 89.624 C 220.000 87.741,220.166 86.400,220.400 86.400 C 220.620 86.400,220.800 86.040,220.800 85.600 C 220.800 85.160,220.980 84.800,221.200 84.800 C 221.420 84.800,221.600 84.524,221.600 84.187 C 221.600 83.501,224.142 80.800,224.787 80.800 C 225.014 80.800,225.200 80.620,225.200 80.400 C 225.200 80.180,225.560 80.000,226.000 80.000 C 226.440 80.000,226.800 79.820,226.800 79.600 C 226.800 79.380,227.520 79.200,228.400 79.200 C 229.280 79.200,230.000 79.020,230.000 78.800 C 230.000 78.246,341.458 78.246,341.800 78.800 M266.000 137.400 L 266.000 162.000 261.400 162.000 L 256.800 162.000 256.800 137.400 L 256.800 112.800 261.400 112.800 L 266.000 112.800 266.000 137.400 M292.400 137.400 L 292.400 162.000 285.800 162.000 L 279.200 162.000 279.200 137.400 L 279.200 112.800 285.800 112.800 L 292.400 112.800 292.400 137.400 M315.200 137.400 L 315.200 162.000 310.600 162.000 L 306.000 162.000 306.000 137.400 L 306.000 112.800 310.600 112.800 L 315.200 112.800 315.200 137.400 M117.600 140.829 C 117.600 149.680,117.496 151.761,117.029 152.229 C 116.564 152.693,114.610 152.800,106.600 152.800 C 98.590 152.800,96.636 152.693,96.171 152.229 C 95.704 151.761,95.600 149.680,95.600 140.829 L 95.600 130.000 106.600 130.000 L 117.600 130.000 117.600 140.829 M316.000 185.600 L 316.000 197.200 306.251 197.200 L 296.501 197.200 294.851 198.709 C 292.017 201.299,293.258 207.600,296.601 207.600 C 296.927 207.600,297.418 207.960,297.693 208.400 C 298.168 209.161,298.626 209.200,307.096 209.200 L 316.000 209.200 316.000 220.400 L 316.000 231.600 306.296 231.600 C 297.026 231.600,296.570 231.636,296.093 232.400 C 295.818 232.840,295.300 233.200,294.941 233.200 C 293.306 233.200,292.571 237.223,293.780 239.560 C 294.421 240.800,296.016 242.000,297.023 242.000 C 297.382 242.000,297.769 242.360,297.884 242.800 C 298.085 243.570,298.430 243.600,307.047 243.600 L 316.000 243.600 316.000 255.740 C 316.000 270.315,315.545 272.216,311.660 273.874 C 310.857 274.217,309.887 274.656,309.505 274.849 C 309.123 275.042,308.268 275.200,307.605 275.200 C 306.942 275.200,306.400 275.380,306.400 275.600 C 306.400 275.862,298.931 276.000,284.792 276.000 L 263.184 276.000 261.561 274.976 C 260.645 274.397,259.701 273.383,259.393 272.644 C 259.092 271.925,258.603 271.134,258.305 270.887 C 258.008 270.641,257.514 269.800,257.208 269.019 C 256.901 268.239,256.504 267.600,256.325 267.600 C 256.146 267.600,256.000 246.540,256.000 220.800 L 256.000 174.000 286.000 174.000 L 316.000 174.000 316.000 185.600 M154.400 192.000 C 154.400 192.220,154.760 192.400,155.200 192.400 C 155.640 192.400,156.000 192.580,156.000 192.800 C 156.000 193.020,156.360 193.200,156.800 193.200 C 157.333 193.200,157.600 193.467,157.600 194.000 C 157.600 194.440,157.763 194.800,157.963 194.800 C 158.625 194.800,159.801 199.229,159.232 199.580 C 158.957 199.750,158.750 200.005,158.773 200.147 C 159.005 201.589,157.052 204.400,155.818 204.400 C 155.478 204.400,155.200 204.580,155.200 204.800 C 155.200 205.061,148.933 205.200,137.200 205.200 C 125.467 205.200,119.200 205.339,119.200 205.600 C 119.200 205.820,118.660 206.000,118.000 206.000 C 117.340 206.000,116.800 206.180,116.800 206.400 C 116.800 206.620,116.517 206.800,116.171 206.800 C 115.453 206.800,114.400 207.734,114.400 208.371 C 114.400 208.607,114.220 208.800,114.000 208.800 C 113.767 208.800,113.600 210.133,113.600 212.000 C 113.600 213.867,113.767 215.200,114.000 215.200 C 114.220 215.200,114.400 215.483,114.400 215.829 C 114.400 216.637,115.363 217.600,116.171 217.600 C 116.517 217.600,116.800 217.780,116.800 218.000 C 116.800 218.259,121.867 218.400,131.200 218.400 L 145.600 218.400 145.600 220.000 C 145.600 220.880,145.780 221.600,146.000 221.600 C 146.235 221.600,146.400 223.000,146.400 225.000 C 146.400 227.000,146.565 228.400,146.800 228.400 C 147.022 228.400,147.200 229.467,147.200 230.800 C 147.200 232.133,147.378 233.200,147.600 233.200 C 147.820 233.200,148.000 234.100,148.000 235.200 C 148.000 236.300,148.180 237.200,148.400 237.200 C 148.620 237.200,148.800 237.920,148.800 238.800 C 148.800 239.680,148.980 240.400,149.200 240.400 C 149.420 240.400,149.600 240.850,149.600 241.400 C 149.600 241.950,149.780 242.400,150.000 242.400 C 150.220 242.400,150.400 242.940,150.400 243.600 C 150.400 244.260,150.580 244.800,150.800 244.800 C 151.020 244.800,151.200 245.340,151.200 246.000 C 151.200 246.660,151.380 247.200,151.600 247.200 C 151.820 247.200,152.000 247.560,152.000 248.000 C 152.000 248.440,152.180 248.800,152.400 248.800 C 152.620 248.800,152.800 249.340,152.800 250.000 C 152.800 250.660,152.980 251.200,153.200 251.200 C 153.420 251.200,153.600 251.560,153.600 252.000 C 153.600 252.440,153.780 252.800,154.000 252.800 C 154.220 252.800,154.400 253.160,154.400 253.600 C 154.400 254.040,154.580 254.400,154.800 254.400 C 155.020 254.400,155.200 254.760,155.200 255.200 C 155.200 255.640,155.380 256.000,155.600 256.000 C 155.820 256.000,156.000 256.360,156.000 256.800 C 156.000 257.240,156.180 257.600,156.400 257.600 C 156.620 257.600,156.800 257.870,156.800 258.200 C 156.800 258.530,156.980 258.800,157.200 258.800 C 157.420 258.800,157.600 259.160,157.600 259.600 C 157.600 260.040,157.736 260.400,157.902 260.400 C 158.269 260.400,159.190 262.913,159.478 264.700 C 159.593 265.415,159.848 266.000,160.044 266.000 C 160.240 266.000,160.400 266.360,160.400 266.800 C 160.400 267.240,160.580 267.600,160.800 267.600 C 161.020 267.600,161.200 267.960,161.200 268.400 C 161.200 268.840,161.380 269.200,161.600 269.200 C 161.820 269.200,162.000 269.740,162.000 270.400 C 162.000 271.060,162.180 271.600,162.400 271.600 C 162.620 271.600,162.800 272.140,162.800 272.800 C 162.800 273.460,162.980 274.000,163.200 274.000 C 163.420 274.000,163.600 274.180,163.600 274.400 C 163.600 274.665,144.290 274.800,106.469 274.800 L 49.339 274.800 49.515 273.600 C 49.612 272.940,49.850 272.400,50.045 272.400 C 50.240 272.400,50.400 271.860,50.400 271.200 C 50.400 270.540,50.580 270.000,50.800 270.000 C 51.020 270.000,51.200 269.640,51.200 269.200 C 51.200 268.760,51.380 268.400,51.600 268.400 C 51.820 268.400,52.000 267.860,52.000 267.200 C 52.000 266.540,52.180 266.000,52.400 266.000 C 52.620 266.000,52.800 265.640,52.800 265.200 C 52.800 264.760,52.980 264.400,53.200 264.400 C 53.420 264.400,53.600 264.040,53.600 263.600 C 53.600 263.160,53.780 262.800,54.000 262.800 C 54.220 262.800,54.400 262.440,54.400 262.000 C 54.400 261.560,54.580 261.200,54.800 261.200 C 55.020 261.200,55.200 260.840,55.200 260.400 C 55.200 259.960,55.380 259.600,55.600 259.600 C 55.820 259.600,56.000 259.240,56.000 258.800 C 56.000 258.360,56.146 258.000,56.325 258.000 C 56.504 258.000,56.898 257.370,57.200 256.600 C 57.502 255.830,57.896 255.200,58.075 255.200 C 58.254 255.200,58.376 255.065,58.346 254.900 C 58.228 254.234,58.923 252.000,59.250 252.000 C 59.442 252.000,59.600 251.460,59.600 250.800 C 59.600 250.140,59.780 249.600,60.000 249.600 C 60.220 249.600,60.400 249.240,60.400 248.800 C 60.400 248.360,60.580 248.000,60.800 248.000 C 61.020 248.000,61.200 247.460,61.200 246.800 C 61.200 246.140,61.380 245.600,61.600 245.600 C 61.820 245.600,62.000 245.240,62.000 244.800 C 62.000 244.360,62.180 244.000,62.400 244.000 C 62.620 244.000,62.800 243.370,62.800 242.600 C 62.800 241.830,62.980 241.200,63.200 241.200 C 63.420 241.200,63.600 240.660,63.600 240.000 C 63.600 239.340,63.780 238.800,64.000 238.800 C 64.220 238.800,64.400 237.900,64.400 236.800 C 64.400 235.700,64.580 234.800,64.800 234.800 C 65.020 234.800,65.200 233.900,65.200 232.800 C 65.200 231.700,65.380 230.800,65.600 230.800 C 65.831 230.800,66.000 229.541,66.000 227.824 C 66.000 226.187,66.180 224.736,66.400 224.600 C 66.620 224.464,66.800 223.013,66.800 221.376 L 66.800 218.400 81.600 218.400 C 91.200 218.400,96.400 218.259,96.400 218.000 C 96.400 217.780,96.683 217.600,97.029 217.600 C 97.837 217.600,98.800 216.637,98.800 215.829 C 98.800 215.483,98.980 215.200,99.200 215.200 C 99.431 215.200,99.600 213.933,99.600 212.200 C 99.600 210.467,99.431 209.200,99.200 209.200 C 98.980 209.200,98.800 208.917,98.800 208.571 C 98.800 207.763,97.837 206.800,97.029 206.800 C 96.683 206.800,96.400 206.620,96.400 206.400 C 96.400 206.180,95.860 206.000,95.200 206.000 C 94.540 206.000,94.000 205.820,94.000 205.600 C 94.000 205.339,87.800 205.200,76.200 205.200 C 64.600 205.200,58.400 205.061,58.400 204.800 C 58.400 204.580,58.122 204.400,57.782 204.400 C 56.982 204.400,55.200 202.618,55.200 201.818 C 55.200 201.478,55.020 201.200,54.800 201.200 C 54.578 201.200,54.400 200.133,54.400 198.800 C 54.400 197.467,54.578 196.400,54.800 196.400 C 55.020 196.400,55.200 196.124,55.200 195.787 C 55.200 195.101,57.742 192.400,58.387 192.400 C 58.614 192.400,58.800 192.220,58.800 192.000 C 58.800 191.736,75.000 191.600,106.600 191.600 C 138.200 191.600,154.400 191.736,154.400 192.000 M165.902 321.500 L 165.800 355.800 106.643 355.901 C 63.254 355.976,47.341 355.883,46.943 355.552 C 46.363 355.071,46.091 288.042,46.667 287.467 C 46.813 287.320,73.724 287.200,106.469 287.200 L 166.004 287.200 165.902 321.500 M297.200 298.920 C 297.200 306.176,297.058 309.345,296.700 310.117 L 296.200 311.194 286.247 311.197 C 273.467 311.201,274.800 312.605,274.800 299.139 L 274.800 288.800 286.000 288.800 L 297.200 288.800 297.200 298.920 M165.200 372.600 C 165.200 375.133,165.041 376.800,164.800 376.800 C 164.580 376.800,164.400 377.160,164.400 377.600 C 164.400 378.040,164.220 378.400,164.000 378.400 C 163.780 378.400,163.600 378.760,163.600 379.200 C 163.600 379.640,163.420 380.000,163.200 380.000 C 162.980 380.000,162.800 380.275,162.800 380.611 C 162.800 380.946,161.990 382.031,161.000 383.021 C 160.010 384.011,159.200 384.996,159.200 385.211 C 159.200 385.425,158.840 385.600,158.400 385.600 C 157.960 385.600,157.600 385.780,157.600 386.000 C 157.600 386.220,157.060 386.400,156.400 386.400 C 155.740 386.400,155.200 386.580,155.200 386.800 C 155.200 387.020,154.300 387.200,153.200 387.200 C 152.100 387.200,151.200 387.380,151.200 387.600 C 151.200 387.864,135.933 388.000,106.200 388.000 C 76.467 388.000,61.200 387.864,61.200 387.600 C 61.200 387.380,60.390 387.200,59.400 387.200 C 58.410 387.200,57.600 387.020,57.600 386.800 C 57.600 386.580,57.240 386.400,56.800 386.400 C 56.360 386.400,56.000 386.220,56.000 386.000 C 56.000 385.780,55.640 385.600,55.200 385.600 C 54.760 385.600,54.400 385.420,54.400 385.200 C 54.400 384.980,54.124 384.800,53.787 384.800 C 53.038 384.800,50.400 382.231,50.400 381.502 C 50.400 381.213,50.040 380.717,49.600 380.400 C 49.130 380.061,48.800 379.365,48.800 378.712 C 48.800 378.100,48.620 377.600,48.400 377.600 C 48.180 377.600,48.000 377.049,48.000 376.376 C 48.000 375.663,47.833 375.256,47.600 375.400 C 47.345 375.558,47.200 374.337,47.200 372.024 L 47.200 368.400 106.200 368.400 L 165.200 368.400 165.200 372.600 " stroke="none" fill="#146434" fill-rule="evenodd"></path><path id="path2" d="M264.069 26.300 C 276.097 26.359,295.897 26.359,308.069 26.300 C 320.241 26.241,310.400 26.193,286.200 26.193 C 262.000 26.193,252.041 26.241,264.069 26.300 M315.512 185.600 C 315.450 191.980,315.535 197.200,315.700 197.200 C 315.865 197.200,316.000 191.980,316.000 185.600 C 316.000 179.220,315.915 174.000,315.812 174.000 C 315.708 174.000,315.573 179.220,315.512 185.600 M294.425 198.431 C 293.669 199.065,293.130 199.663,293.228 199.761 C 293.325 199.859,294.033 199.426,294.800 198.800 C 295.567 198.174,296.106 197.575,295.997 197.470 C 295.889 197.364,295.181 197.797,294.425 198.431 M293.201 205.073 C 293.201 205.587,293.693 206.296,294.400 206.800 C 295.060 207.270,295.600 207.462,295.600 207.227 C 295.600 206.992,295.417 206.800,295.194 206.800 C 294.971 206.800,294.432 206.215,293.996 205.500 C 293.311 204.377,293.203 204.319,293.201 205.073 M296.833 208.433 C 297.292 208.892,297.767 209.166,297.890 209.043 C 298.221 208.712,297.189 207.600,296.551 207.600 C 296.173 207.600,296.262 207.862,296.833 208.433 M315.600 220.193 L 315.600 231.186 306.100 231.300 L 296.600 231.415 306.300 231.508 L 316.000 231.600 316.000 220.400 C 316.000 214.240,315.910 209.200,315.800 209.200 C 315.690 209.200,315.600 214.147,315.600 220.193 M294.700 232.653 C 293.875 233.180,293.206 233.834,293.213 234.106 C 293.220 234.401,293.440 234.318,293.757 233.900 C 294.049 233.515,294.561 233.200,294.895 233.200 C 295.495 233.200,296.660 232.114,296.357 231.837 C 296.271 231.758,295.525 232.125,294.700 232.653 M292.867 236.474 C 292.771 239.162,294.235 242.000,295.718 242.000 C 295.920 242.000,295.536 241.487,294.865 240.861 C 293.603 239.682,293.311 238.921,293.074 236.200 C 292.936 234.623,292.934 234.627,292.867 236.474 M297.002 242.802 C 297.798 243.682,298.234 243.588,297.862 242.617 C 297.732 242.278,297.322 242.000,296.951 242.000 C 296.335 242.000,296.340 242.070,297.002 242.802 M315.600 256.200 C 315.421 267.657,315.323 269.142,314.661 270.355 C 313.708 272.103,312.084 273.600,311.142 273.600 C 310.734 273.600,310.400 273.780,310.400 274.000 C 310.400 274.959,312.884 273.565,314.140 271.900 C 315.899 269.571,316.046 268.205,315.919 255.400 L 315.800 243.400 315.600 256.200 M259.200 272.160 C 259.200 273.655,262.475 276.015,264.492 275.973 C 265.656 275.949,265.580 275.887,263.800 275.410 C 262.366 275.025,261.432 274.448,260.500 273.370 C 259.785 272.543,259.200 271.999,259.200 272.160 M46.584 287.700 C 46.479 287.975,46.441 303.320,46.499 321.800 L 46.605 355.400 46.702 321.500 L 46.800 287.600 106.200 287.600 L 165.600 287.600 165.600 321.599 L 165.600 355.597 106.400 355.701 L 47.200 355.804 106.500 355.802 L 165.800 355.800 165.902 321.500 L 166.004 287.200 106.390 287.200 C 59.066 287.200,46.736 287.303,46.584 287.700 " stroke="none" fill="#16793c" fill-rule="evenodd"></path><path id="path3" d="M256.184 174.500 C 256.080 174.775,256.041 195.700,256.099 221.000 L 256.203 267.000 256.302 220.703 L 256.400 174.405 286.100 174.300 L 315.800 174.195 286.087 174.097 C 262.614 174.020,256.335 174.105,256.184 174.500 M295.461 197.100 C 295.359 197.265,298.273 197.354,301.937 197.297 C 314.239 197.108,315.471 196.965,305.524 196.882 C 300.092 196.837,295.563 196.935,295.461 197.100 M292.934 202.400 C 292.934 204.050,293.005 204.725,293.091 203.900 C 293.178 203.075,293.178 201.725,293.091 200.900 C 293.005 200.075,292.934 200.750,292.934 202.400 M294.200 206.965 C 294.860 207.532,295.565 207.997,295.767 207.998 C 296.201 208.000,296.196 207.996,294.400 206.837 L 293.000 205.934 294.200 206.965 M302.300 209.499 C 304.775 209.569,308.825 209.569,311.300 209.499 C 313.775 209.428,311.750 209.371,306.800 209.371 C 301.850 209.371,299.825 209.428,302.300 209.499 M292.493 236.800 C 292.493 237.570,292.575 237.885,292.676 237.500 C 292.776 237.115,292.776 236.485,292.676 236.100 C 292.575 235.715,292.493 236.030,292.493 236.800 M264.616 275.653 C 265.267 275.792,274.890 275.890,286.000 275.871 C 297.110 275.853,304.760 275.786,303.000 275.723 C 296.060 275.475,263.503 275.415,264.616 275.653 " stroke="none" fill="#1c944c" fill-rule="evenodd"></path><path id="path4" d="M296.509 208.800 C 297.069 209.240,297.657 209.600,297.817 209.600 C 297.977 209.600,297.650 209.240,297.091 208.800 C 296.531 208.360,295.943 208.000,295.783 208.000 C 295.623 208.000,295.950 208.360,296.509 208.800 M294.300 232.229 C 293.475 232.770,292.800 233.389,292.800 233.606 C 292.800 233.823,293.115 233.721,293.500 233.379 C 293.885 233.038,294.650 232.414,295.200 231.993 C 296.597 230.923,296.093 231.055,294.300 232.229 M292.178 235.779 C 292.035 236.537,292.075 237.626,292.266 238.199 C 292.539 239.017,292.613 238.721,292.613 236.820 C 292.613 234.039,292.538 233.858,292.178 235.779 M292.800 239.856 C 292.800 240.095,293.275 240.765,293.855 241.345 C 294.435 241.925,295.105 242.400,295.344 242.400 C 295.582 242.400,295.384 242.124,294.902 241.787 C 294.421 241.449,293.751 240.779,293.413 240.298 C 293.076 239.816,292.800 239.618,292.800 239.856 M301.900 243.899 C 304.375 243.969,308.425 243.969,310.900 243.899 C 313.375 243.828,311.350 243.771,306.400 243.771 C 301.450 243.771,299.425 243.828,301.900 243.899 M313.469 271.117 C 312.847 272.125,312.633 272.704,312.995 272.404 C 313.674 271.841,314.959 269.619,314.729 269.405 C 314.658 269.339,314.091 270.109,313.469 271.117 M259.029 271.238 C 259.673 272.029,260.281 272.608,260.379 272.525 C 260.478 272.442,259.951 271.795,259.209 271.087 L 257.858 269.800 259.029 271.238 M309.666 273.793 C 309.153 274.076,308.523 274.525,308.266 274.791 C 307.871 275.202,310.687 273.809,311.167 273.357 C 311.522 273.023,310.554 273.304,309.666 273.793 M262.176 274.570 C 262.604 274.917,263.594 275.177,264.376 275.150 L 265.800 275.100 264.200 274.836 C 263.320 274.691,262.330 274.430,262.000 274.256 C 261.670 274.083,261.749 274.224,262.176 274.570 M46.997 321.500 L 47.000 355.400 106.000 355.402 L 165.000 355.404 106.102 355.301 L 47.205 355.197 47.099 321.399 L 46.993 287.600 46.997 321.500 " stroke="none" fill="#1c9c4c" fill-rule="evenodd"></path></g></svg>