<svg id="svg" version="1.1" xmlns="http://www.w3.org/2000/svg" xmlns:xlink="http://www.w3.org/1999/xlink" width="400" height="400" viewBox="0, 0, 400,400"><g id="svgg"><path id="path0" d="M194.000 153.020 L 194.000 178.840 192.660 180.220 C 191.481 181.433,191.076 181.600,189.306 181.600 C 187.599 181.600,187.192 181.753,186.637 182.600 C 186.044 183.505,185.722 183.600,183.253 183.600 C 179.088 183.600,179.200 183.886,179.200 173.238 L 179.200 164.338 178.031 163.169 C 176.337 161.476,168.744 161.357,167.200 163.000 C 166.633 163.603,165.818 164.000,165.144 164.000 C 164.438 164.000,163.871 164.293,163.600 164.800 C 163.331 165.302,162.762 165.600,162.073 165.600 C 160.639 165.600,156.800 169.430,156.800 170.860 C 156.800 171.502,156.198 172.358,155.003 173.413 C 153.747 174.522,153.205 175.313,153.203 176.038 C 153.201 176.609,152.840 177.402,152.400 177.800 C 151.960 178.198,151.600 178.955,151.600 179.481 C 151.600 180.008,151.150 180.855,150.600 181.365 C 150.050 181.875,149.600 182.738,149.600 183.284 C 149.600 183.830,149.240 184.602,148.800 185.000 C 148.360 185.398,148.000 186.155,148.000 186.681 C 148.000 187.208,147.550 188.055,147.000 188.565 C 146.185 189.320,146.000 189.870,146.000 191.532 C 146.000 193.162,145.839 193.658,145.200 194.000 C 144.678 194.279,144.400 194.838,144.400 195.605 C 144.400 196.419,144.092 196.984,143.400 197.437 C 142.478 198.041,142.400 198.330,142.400 201.150 C 142.400 203.774,142.287 204.278,141.600 204.707 C 140.924 205.129,140.800 205.640,140.800 208.007 C 140.800 210.313,140.659 210.929,140.000 211.493 C 139.307 212.086,139.200 212.673,139.200 215.892 C 139.200 219.354,139.132 219.664,138.200 220.475 C 137.245 221.305,137.200 221.546,137.200 225.802 C 137.200 230.041,137.249 230.307,138.200 231.200 C 138.986 231.938,139.200 232.534,139.200 233.981 C 139.200 235.327,139.415 236.006,140.000 236.507 C 140.471 236.911,140.800 237.687,140.800 238.396 L 140.800 239.600 145.786 239.600 C 150.362 239.600,150.807 239.534,151.200 238.800 C 151.547 238.151,152.038 238.000,153.800 238.000 C 155.562 238.000,156.053 237.849,156.400 237.200 C 156.746 236.553,157.238 236.400,158.968 236.400 C 160.809 236.400,161.199 236.260,161.763 235.400 C 162.365 234.482,162.661 234.400,165.395 234.400 C 167.962 234.400,168.431 234.290,168.800 233.600 C 169.182 232.886,169.638 232.800,173.054 232.800 C 176.817 232.800,176.898 232.780,178.040 231.558 L 179.200 230.315 179.200 213.386 C 179.200 194.856,179.156 195.200,181.532 195.200 C 182.174 195.200,182.809 194.878,183.107 194.400 C 183.506 193.761,184.040 193.600,185.757 193.600 C 187.610 193.600,187.999 193.461,188.563 192.600 C 189.281 191.505,191.706 191.200,193.226 192.014 C 193.983 192.419,194.000 193.255,194.000 229.240 L 194.000 266.052 191.826 268.226 L 189.652 270.400 176.072 270.400 L 162.492 270.400 161.837 271.400 C 161.287 272.238,160.869 272.400,159.247 272.400 C 156.836 272.400,149.600 279.033,149.600 281.242 C 149.600 281.962,149.310 282.527,148.800 282.800 C 148.039 283.207,148.000 283.638,148.000 291.600 C 148.000 299.562,148.039 299.993,148.800 300.400 C 149.310 300.673,149.600 301.238,149.600 301.958 C 149.600 303.605,156.799 310.800,158.447 310.800 C 159.216 310.800,159.793 311.122,160.237 311.800 C 160.801 312.660,161.191 312.800,163.032 312.800 C 164.762 312.800,165.254 312.953,165.600 313.600 C 166.023 314.391,166.438 314.400,200.934 314.400 C 238.400 314.400,236.800 314.307,236.800 316.477 C 236.800 317.160,237.110 317.787,237.600 318.093 C 238.040 318.368,238.400 318.791,238.400 319.034 C 238.400 319.277,238.040 319.802,237.600 320.200 C 237.160 320.598,236.800 321.333,236.800 321.833 C 236.800 324.115,238.806 324.000,198.975 324.000 C 162.840 324.000,162.401 324.009,161.907 324.800 C 161.580 325.324,160.974 325.600,160.150 325.600 C 159.250 325.600,158.706 325.884,158.237 326.600 C 157.820 327.237,157.209 327.600,156.555 327.600 C 155.142 327.600,153.200 329.508,153.200 330.895 C 153.200 331.560,152.884 332.190,152.400 332.493 C 151.913 332.797,151.600 333.426,151.600 334.099 C 151.600 334.781,151.216 335.539,150.600 336.075 C 149.062 337.412,149.062 345.388,150.600 346.725 C 151.216 347.261,151.600 348.019,151.600 348.701 C 151.600 349.374,151.913 350.003,152.400 350.307 C 152.863 350.596,153.200 351.240,153.200 351.834 C 153.200 353.179,155.218 355.200,156.560 355.200 C 157.208 355.200,157.821 355.565,158.237 356.200 C 158.720 356.937,159.244 357.200,160.232 357.200 C 161.162 357.200,161.703 357.444,162.000 358.000 C 162.423 358.791,162.838 358.800,199.134 358.800 C 238.532 358.800,236.800 358.705,236.800 360.877 C 236.800 361.560,237.110 362.187,237.600 362.493 C 238.040 362.768,238.400 363.266,238.400 363.600 C 238.400 363.934,238.040 364.432,237.600 364.707 C 237.110 365.013,236.800 365.640,236.800 366.323 C 236.800 368.501,238.850 368.400,194.807 368.400 L 153.774 368.400 151.687 370.547 C 148.916 373.398,148.618 376.838,150.947 379.100 L 152.285 380.400 195.670 380.400 L 239.056 380.400 239.925 379.400 C 240.412 378.840,241.228 378.400,241.778 378.400 C 243.123 378.400,246.800 374.723,246.800 373.378 C 246.800 372.828,247.240 372.012,247.800 371.525 C 248.423 370.983,248.800 370.232,248.800 369.531 C 248.800 368.840,249.108 368.214,249.600 367.907 C 250.309 367.464,250.400 366.974,250.400 363.600 C 250.400 360.226,250.309 359.736,249.600 359.293 C 249.108 358.986,248.800 358.360,248.800 357.669 C 248.800 356.968,248.423 356.217,247.800 355.675 C 247.240 355.188,246.800 354.372,246.800 353.822 C 246.800 352.477,243.123 348.800,241.778 348.800 C 241.228 348.800,240.412 348.360,239.925 347.800 L 239.056 346.800 202.537 346.800 L 166.017 346.800 163.809 344.591 C 160.875 341.658,160.674 339.467,163.117 337.081 L 164.634 335.600 202.041 335.600 L 239.448 335.600 240.824 334.009 C 241.820 332.858,242.515 332.416,243.340 332.409 C 244.748 332.398,246.800 330.339,246.800 328.939 C 246.800 328.401,247.250 327.545,247.800 327.035 C 248.378 326.500,248.800 325.665,248.800 325.058 C 248.800 324.440,249.130 323.801,249.600 323.507 C 250.311 323.063,250.400 322.574,250.400 319.118 C 250.400 315.638,250.316 315.183,249.600 314.800 C 248.963 314.459,248.800 313.962,248.800 312.362 C 248.800 310.030,243.910 304.400,241.884 304.400 C 241.365 304.400,240.517 303.950,240.000 303.400 C 239.250 302.602,238.672 302.400,237.134 302.400 C 235.640 302.400,235.094 302.220,234.707 301.600 C 234.214 300.810,233.774 300.800,199.336 300.800 L 164.464 300.800 162.032 298.368 L 159.600 295.936 159.600 291.600 L 159.600 287.264 162.032 284.832 L 164.464 282.400 172.479 282.400 L 180.494 282.400 182.047 283.953 C 183.060 284.966,183.600 285.870,183.600 286.553 C 183.600 287.448,183.773 287.600,184.791 287.600 C 185.620 287.600,186.181 287.904,186.637 288.600 C 187.120 289.337,187.644 289.600,188.632 289.600 C 189.562 289.600,190.103 289.844,190.400 290.400 C 190.740 291.035,191.238 291.200,192.817 291.200 C 194.439 291.200,194.965 291.384,195.675 292.200 C 196.541 293.196,196.572 293.200,203.600 293.200 C 210.628 293.200,210.659 293.196,211.525 292.200 C 212.338 291.265,212.641 291.200,216.183 291.200 C 219.562 291.200,220.018 291.114,220.400 290.400 C 220.685 289.867,221.238 289.600,222.057 289.600 C 222.890 289.600,223.538 289.279,224.071 288.600 C 224.568 287.969,225.262 287.600,225.953 287.600 C 226.732 287.600,227.445 287.141,228.424 286.009 C 229.381 284.903,230.126 284.415,230.871 284.409 C 232.273 284.397,238.000 278.692,238.000 277.308 C 238.000 276.804,238.360 276.084,238.800 275.707 C 239.240 275.330,239.600 274.535,239.600 273.940 C 239.600 273.262,239.974 272.564,240.600 272.071 C 241.591 271.292,241.600 271.228,241.600 264.988 C 241.600 258.786,241.585 258.678,240.600 257.765 C 240.050 257.255,239.600 256.449,239.600 255.973 C 239.600 254.658,235.666 250.813,234.314 250.806 C 233.642 250.802,233.065 250.495,232.800 250.000 C 232.396 249.244,231.962 249.200,225.000 249.200 C 218.038 249.200,217.604 249.244,217.200 250.000 C 216.852 250.650,216.362 250.800,214.595 250.800 C 212.715 250.800,212.329 250.936,211.763 251.800 C 211.294 252.516,210.750 252.800,209.850 252.800 C 209.026 252.800,208.420 253.076,208.093 253.600 C 207.494 254.559,206.578 254.642,206.243 253.767 C 205.599 252.089,205.988 190.908,206.646 190.362 C 207.199 189.903,207.395 189.954,208.010 190.713 C 208.656 191.511,209.092 191.600,212.364 191.600 L 216.000 191.600 217.600 193.200 L 219.200 194.800 219.200 210.911 C 219.200 226.527,219.225 227.043,220.000 227.707 C 220.440 228.084,220.801 228.799,220.802 229.296 C 220.807 231.620,222.900 232.800,227.017 232.800 C 230.360 232.800,230.851 232.892,231.293 233.600 C 231.718 234.281,232.226 234.400,234.699 234.400 C 237.301 234.400,237.696 234.505,238.475 235.400 C 239.170 236.199,239.718 236.400,241.210 236.400 C 242.568 236.400,243.273 236.618,243.800 237.200 C 244.334 237.790,245.032 238.000,246.459 238.000 C 247.960 238.000,248.505 238.179,248.893 238.800 C 249.336 239.510,249.826 239.600,253.250 239.600 L 257.107 239.600 259.154 237.532 L 261.200 235.464 261.200 232.546 C 261.200 230.038,261.312 229.568,262.000 229.200 C 262.521 228.921,262.800 228.362,262.800 227.600 C 262.800 226.838,262.521 226.279,262.000 226.000 C 261.250 225.599,261.200 225.162,261.200 219.058 C 261.200 212.609,261.190 212.536,260.200 211.675 C 259.305 210.896,259.200 210.501,259.200 207.899 C 259.200 205.426,259.081 204.918,258.400 204.493 C 257.770 204.099,257.600 203.560,257.600 201.954 C 257.600 200.256,257.433 199.784,256.600 199.129 C 255.783 198.486,255.600 197.993,255.600 196.433 C 255.600 195.032,255.387 194.331,254.800 193.800 C 254.210 193.266,254.000 192.568,254.000 191.141 C 254.000 189.640,253.821 189.095,253.200 188.707 C 252.676 188.380,252.400 187.774,252.400 186.950 C 252.400 186.050,252.116 185.506,251.400 185.037 C 250.734 184.600,250.400 184.014,250.400 183.280 C 250.400 182.673,250.041 181.870,249.600 181.493 C 249.160 181.116,248.800 180.332,248.800 179.750 C 248.800 179.135,248.381 178.303,247.800 177.765 C 247.250 177.255,246.800 176.455,246.800 175.988 C 246.800 175.513,246.005 174.342,245.000 173.337 C 243.878 172.215,243.200 171.179,243.200 170.587 C 243.200 169.317,237.796 164.000,236.505 164.000 C 236.004 164.000,235.203 163.550,234.725 163.000 C 234.003 162.169,233.498 162.000,231.742 162.000 C 230.038 162.000,229.545 161.845,229.200 161.200 C 228.921 160.679,228.362 160.400,227.600 160.400 C 226.838 160.400,226.279 160.679,226.000 161.200 C 225.722 161.719,225.162 162.000,224.406 162.000 C 222.512 162.000,220.804 164.130,220.802 166.497 C 220.800 167.959,220.617 168.508,220.000 168.893 C 219.265 169.352,219.200 169.826,219.200 174.723 C 219.200 181.622,219.213 181.600,215.200 181.600 C 212.438 181.600,211.973 181.497,211.600 180.800 C 211.261 180.167,210.762 180.000,209.214 180.000 C 205.750 180.000,206.000 182.106,206.000 152.971 L 206.000 127.200 200.000 127.200 L 194.000 127.200 194.000 153.020 " stroke="none" fill="#24c45c" fill-rule="evenodd"></path><path id="path1" d="M192.800 3.586 C 192.800 4.313,192.470 4.382,188.500 4.486 C 184.385 4.595,184.195 4.639,184.072 5.500 C 183.955 6.327,183.735 6.400,181.372 6.400 C 179.067 6.400,178.800 6.483,178.800 7.200 C 178.800 7.881,178.533 8.000,177.000 8.000 C 175.334 8.000,175.200 8.076,175.200 9.027 C 175.200 9.988,175.092 10.046,173.500 9.927 C 171.996 9.815,171.785 9.904,171.672 10.700 C 171.562 11.479,171.305 11.600,169.772 11.600 C 168.267 11.600,168.000 11.720,168.000 12.400 C 168.000 13.116,167.584 13.387,166.700 13.247 C 166.535 13.221,166.400 13.650,166.400 14.200 C 166.400 15.000,166.200 15.200,165.400 15.200 C 164.667 15.200,164.400 15.413,164.400 16.000 C 164.400 16.533,164.133 16.800,163.600 16.800 C 163.013 16.800,162.800 17.067,162.800 17.800 C 162.800 18.719,162.653 18.800,161.000 18.800 L 159.200 18.800 159.200 20.600 C 159.200 22.253,159.119 22.400,158.200 22.400 C 157.650 22.400,157.221 22.535,157.247 22.700 C 157.387 23.584,157.116 24.000,156.400 24.000 C 155.825 24.000,155.600 24.267,155.600 24.948 C 155.600 25.678,155.394 25.885,154.700 25.848 C 154.006 25.811,153.811 26.006,153.848 26.700 C 153.885 27.394,153.678 27.600,152.948 27.600 C 152.091 27.600,152.000 27.773,152.000 29.400 C 152.000 30.933,151.881 31.200,151.200 31.200 C 150.519 31.200,150.400 31.467,150.400 33.000 C 150.400 34.653,150.319 34.800,149.400 34.800 C 148.436 34.800,148.400 34.893,148.400 37.400 C 148.400 39.733,148.318 40.000,147.600 40.000 C 146.882 40.000,146.800 40.267,146.800 42.600 C 146.800 45.198,146.632 45.465,145.130 45.257 C 144.981 45.237,144.840 51.245,144.816 58.610 L 144.772 72.000 145.786 72.000 C 146.767 72.000,146.800 72.084,146.800 74.600 C 146.800 76.933,146.882 77.200,147.600 77.200 C 148.324 77.200,148.400 77.467,148.400 80.000 C 148.400 82.720,148.429 82.800,149.400 82.800 C 150.319 82.800,150.400 82.947,150.400 84.600 C 150.400 86.133,150.519 86.400,151.200 86.400 C 151.733 86.400,152.000 86.667,152.000 87.200 C 152.000 87.792,152.267 88.000,153.027 88.000 C 153.988 88.000,154.046 88.108,153.927 89.700 C 153.815 91.204,153.904 91.415,154.700 91.528 C 155.278 91.610,155.600 91.932,155.600 92.428 C 155.600 92.933,155.876 93.200,156.400 93.200 C 157.108 93.200,157.418 93.821,157.247 94.900 C 157.221 95.065,157.650 95.200,158.200 95.200 C 158.933 95.200,159.200 95.413,159.200 96.000 C 159.200 96.533,159.467 96.800,160.000 96.800 C 160.587 96.800,160.800 97.067,160.800 97.800 C 160.800 98.600,161.000 98.800,161.800 98.800 C 162.533 98.800,162.800 99.013,162.800 99.600 C 162.800 100.133,163.067 100.400,163.600 100.400 C 164.131 100.400,164.400 100.667,164.400 101.192 C 164.400 101.704,164.754 102.074,165.400 102.236 C 166.026 102.393,166.400 102.770,166.400 103.243 C 166.400 103.733,166.682 104.000,167.200 104.000 C 167.733 104.000,168.000 104.267,168.000 104.800 C 168.000 105.481,168.267 105.600,169.800 105.600 C 171.453 105.600,171.600 105.681,171.600 106.600 C 171.600 107.519,171.747 107.600,173.400 107.600 C 174.933 107.600,175.200 107.719,175.200 108.400 C 175.200 109.081,175.467 109.200,177.000 109.200 C 178.653 109.200,178.800 109.281,178.800 110.200 C 178.800 111.164,178.893 111.200,181.400 111.200 C 183.733 111.200,184.000 111.282,184.000 112.000 C 184.000 112.766,184.267 112.800,190.200 112.800 L 196.400 112.800 196.400 113.800 C 196.400 114.764,196.493 114.800,199.000 114.800 C 201.507 114.800,201.600 114.764,201.600 113.800 L 201.600 112.800 208.000 112.800 C 214.133 112.800,214.400 112.767,214.400 112.000 C 214.400 111.282,214.667 111.200,217.000 111.200 C 219.507 111.200,219.600 111.164,219.600 110.200 C 219.600 109.281,219.747 109.200,221.400 109.200 C 222.933 109.200,223.200 109.081,223.200 108.400 C 223.200 107.719,223.467 107.600,225.000 107.600 C 226.653 107.600,226.800 107.519,226.800 106.600 C 226.800 105.681,226.947 105.600,228.600 105.600 C 230.133 105.600,230.400 105.481,230.400 104.800 C 230.400 104.267,230.667 104.000,231.200 104.000 C 231.733 104.000,232.000 103.733,232.000 103.200 C 232.000 102.519,232.267 102.400,233.800 102.400 C 235.453 102.400,235.600 102.319,235.600 101.400 C 235.600 100.667,235.813 100.400,236.400 100.400 C 236.933 100.400,237.200 100.133,237.200 99.600 C 237.200 99.013,237.467 98.800,238.200 98.800 C 239.000 98.800,239.200 98.600,239.200 97.800 C 239.200 97.067,239.413 96.800,240.000 96.800 C 240.533 96.800,240.800 96.533,240.800 96.000 C 240.800 95.413,241.067 95.200,241.800 95.200 C 242.600 95.200,242.800 95.000,242.800 94.200 C 242.800 93.467,243.013 93.200,243.600 93.200 C 244.281 93.200,244.400 92.933,244.400 91.400 C 244.400 89.747,244.481 89.600,245.400 89.600 C 246.133 89.600,246.400 89.387,246.400 88.800 C 246.400 88.267,246.667 88.000,247.200 88.000 C 247.881 88.000,248.000 87.733,248.000 86.200 C 248.000 84.667,248.119 84.400,248.800 84.400 C 249.481 84.400,249.600 84.133,249.600 82.600 C 249.600 80.947,249.681 80.800,250.600 80.800 C 251.564 80.800,251.600 80.707,251.600 78.200 C 251.600 75.867,251.682 75.600,252.400 75.600 C 253.152 75.600,253.200 75.333,253.200 71.200 L 253.200 66.800 254.200 66.800 L 255.200 66.800 255.200 58.800 L 255.200 50.800 254.200 50.800 L 253.200 50.800 253.200 46.153 C 253.200 41.704,253.166 41.516,252.400 41.716 C 251.657 41.910,251.600 41.728,251.600 39.163 C 251.600 36.482,251.570 36.400,250.600 36.400 C 249.681 36.400,249.600 36.253,249.600 34.600 C 249.600 33.067,249.481 32.800,248.800 32.800 C 248.120 32.800,248.000 32.533,248.000 31.023 C 248.000 29.461,247.903 29.265,247.200 29.400 C 246.469 29.541,246.176 29.021,246.353 27.900 C 246.379 27.735,245.950 27.600,245.400 27.600 C 244.481 27.600,244.400 27.453,244.400 25.800 C 244.400 24.267,244.281 24.000,243.600 24.000 C 243.067 24.000,242.800 23.733,242.800 23.200 C 242.800 22.613,242.533 22.400,241.800 22.400 C 241.000 22.400,240.800 22.200,240.800 21.400 C 240.800 20.667,240.587 20.400,240.000 20.400 C 239.467 20.400,239.200 20.133,239.200 19.600 C 239.200 19.013,238.933 18.800,238.200 18.800 C 237.400 18.800,237.200 18.600,237.200 17.800 C 237.200 17.067,236.987 16.800,236.400 16.800 C 235.867 16.800,235.600 16.533,235.600 16.000 C 235.600 15.413,235.333 15.200,234.600 15.200 C 233.824 15.200,233.600 14.995,233.600 14.282 C 233.600 13.507,233.368 13.348,232.112 13.263 C 230.670 13.166,229.846 12.572,230.250 11.919 C 230.358 11.744,229.639 11.600,228.651 11.600 C 227.094 11.600,226.839 11.481,226.728 10.700 C 226.636 10.053,226.347 9.813,225.700 9.848 C 225.006 9.885,224.800 9.678,224.800 8.948 C 224.800 8.048,224.669 8.000,222.200 8.000 C 219.867 8.000,219.600 7.918,219.600 7.200 C 219.600 6.483,219.333 6.400,217.043 6.400 C 214.650 6.400,214.471 6.336,214.236 5.400 C 213.993 4.432,213.877 4.400,210.592 4.400 C 207.467 4.400,207.200 4.337,207.200 3.600 C 207.200 2.830,206.933 2.800,200.000 2.800 C 193.108 2.800,192.800 2.834,192.800 3.586 M118.400 128.000 C 118.400 128.741,118.133 128.800,114.800 128.800 C 111.227 128.800,111.200 128.807,111.200 129.800 C 111.200 130.773,111.123 130.800,108.353 130.800 C 105.704 130.800,105.521 130.855,105.716 131.600 C 105.902 132.311,105.728 132.400,104.163 132.400 C 102.549 132.400,102.400 132.485,102.400 133.400 C 102.400 134.319,102.253 134.400,100.600 134.400 C 99.067 134.400,98.800 134.519,98.800 135.200 C 98.800 135.881,98.533 136.000,97.000 136.000 C 95.334 136.000,95.200 136.076,95.200 137.027 C 95.200 137.988,95.092 138.046,93.500 137.927 C 91.996 137.815,91.785 137.904,91.672 138.700 C 91.588 139.295,91.270 139.600,90.735 139.600 C 90.262 139.600,89.838 139.932,89.716 140.400 C 89.529 141.113,88.206 141.485,86.700 141.247 C 86.535 141.221,86.400 141.650,86.400 142.200 C 86.400 143.000,86.200 143.200,85.400 143.200 C 84.667 143.200,84.400 143.413,84.400 144.000 C 84.400 144.533,84.133 144.800,83.600 144.800 C 83.013 144.800,82.800 145.067,82.800 145.800 C 82.800 146.548,82.589 146.800,81.963 146.800 C 81.462 146.800,81.041 147.121,80.916 147.600 C 80.800 148.043,80.370 148.400,79.953 148.400 C 79.416 148.400,79.200 148.687,79.200 149.400 C 79.200 150.200,79.000 150.400,78.200 150.400 C 77.650 150.400,77.221 150.535,77.247 150.700 C 77.387 151.584,77.116 152.000,76.400 152.000 C 75.825 152.000,75.600 152.267,75.600 152.948 C 75.600 153.678,75.394 153.885,74.700 153.848 C 74.006 153.811,73.811 154.006,73.848 154.700 C 73.885 155.394,73.678 155.600,72.948 155.600 C 72.091 155.600,72.000 155.773,72.000 157.400 C 72.000 158.933,71.881 159.200,71.200 159.200 C 70.676 159.200,70.400 159.467,70.400 159.972 C 70.400 160.468,70.078 160.790,69.500 160.872 C 68.752 160.978,68.579 161.287,68.477 162.700 C 68.378 164.074,68.205 164.400,67.577 164.400 C 66.923 164.400,66.800 164.684,66.800 166.200 C 66.800 167.853,66.719 168.000,65.800 168.000 C 64.881 168.000,64.800 168.147,64.800 169.800 C 64.800 171.333,64.681 171.600,64.000 171.600 C 63.282 171.600,63.200 171.867,63.200 174.200 C 63.200 176.707,63.164 176.800,62.200 176.800 C 61.650 176.800,61.221 176.935,61.247 177.100 C 61.607 179.375,61.123 182.400,60.400 182.400 C 59.602 182.400,59.600 182.667,59.600 277.400 C 59.600 372.133,59.602 372.400,60.400 372.400 C 61.182 372.400,61.317 372.829,61.307 375.300 C 61.305 375.771,61.615 376.000,62.252 376.000 C 63.109 376.000,63.200 376.173,63.200 377.800 C 63.200 379.296,63.327 379.600,63.953 379.600 C 64.370 379.600,64.800 379.957,64.916 380.400 C 65.041 380.879,65.462 381.200,65.963 381.200 C 66.589 381.200,66.800 381.452,66.800 382.200 C 66.800 382.933,67.013 383.200,67.600 383.200 C 68.133 383.200,68.400 383.467,68.400 384.000 C 68.400 384.681,68.667 384.800,70.200 384.800 C 71.853 384.800,72.000 384.881,72.000 385.800 C 72.000 386.719,72.147 386.800,73.800 386.800 C 75.333 386.800,75.600 386.919,75.600 387.600 C 75.600 388.373,75.867 388.400,83.600 388.400 C 91.333 388.400,91.600 388.373,91.600 387.600 C 91.600 386.919,91.867 386.800,93.400 386.800 C 95.053 386.800,95.200 386.719,95.200 385.800 C 95.200 384.881,95.347 384.800,97.000 384.800 C 98.533 384.800,98.800 384.681,98.800 384.000 C 98.800 383.467,99.067 383.200,99.600 383.200 C 100.187 383.200,100.400 382.933,100.400 382.200 C 100.400 381.400,100.600 381.200,101.400 381.200 C 102.133 381.200,102.400 380.987,102.400 380.400 C 102.400 379.867,102.667 379.600,103.200 379.600 C 103.787 379.600,104.000 379.333,104.000 378.600 C 104.000 377.867,104.213 377.600,104.800 377.600 C 105.467 377.600,105.600 377.333,105.600 376.000 C 105.600 374.560,105.700 374.400,106.600 374.400 C 107.571 374.400,107.600 374.320,107.600 371.600 C 107.600 369.067,107.676 368.800,108.400 368.800 C 109.197 368.800,109.200 368.533,109.200 292.400 L 109.200 216.000 117.200 216.000 L 125.200 216.000 125.263 306.100 C 125.298 355.655,125.318 396.425,125.307 396.700 C 125.293 397.098,140.297 397.200,199.044 397.200 C 272.533 397.200,272.800 397.197,272.800 396.400 C 272.800 395.813,273.067 395.600,273.800 395.600 L 274.800 395.600 274.800 305.800 L 274.800 216.000 282.800 216.000 L 290.800 216.000 290.800 293.400 C 290.800 370.533,290.803 370.800,291.600 370.800 C 292.318 370.800,292.400 371.067,292.400 373.400 C 292.400 375.907,292.436 376.000,293.400 376.000 C 294.133 376.000,294.400 376.213,294.400 376.800 C 294.400 377.333,294.667 377.600,295.200 377.600 C 295.787 377.600,296.000 377.867,296.000 378.600 C 296.000 379.390,296.202 379.600,296.963 379.600 C 297.728 379.600,297.882 379.764,297.716 380.400 C 297.546 381.049,297.704 381.200,298.553 381.200 C 299.403 381.200,299.600 381.388,299.600 382.200 C 299.600 382.994,299.802 383.200,300.577 383.200 C 301.339 383.200,301.520 383.376,301.400 384.000 C 301.280 384.624,301.461 384.800,302.223 384.800 C 302.998 384.800,303.200 385.006,303.200 385.800 C 303.200 386.764,303.293 386.800,305.800 386.800 C 308.133 386.800,308.400 386.882,308.400 387.600 C 308.400 388.373,308.667 388.400,316.400 388.400 C 324.133 388.400,324.400 388.373,324.400 387.600 C 324.400 386.919,324.667 386.800,326.200 386.800 C 327.853 386.800,328.000 386.719,328.000 385.800 C 328.000 384.881,328.147 384.800,329.800 384.800 C 331.333 384.800,331.600 384.681,331.600 384.000 C 331.600 383.467,331.867 383.200,332.400 383.200 C 332.987 383.200,333.200 382.933,333.200 382.200 C 333.200 381.400,333.400 381.200,334.200 381.200 C 334.933 381.200,335.200 380.987,335.200 380.400 C 335.200 379.867,335.467 379.600,336.000 379.600 C 336.681 379.600,336.800 379.333,336.800 377.800 C 336.800 376.147,336.881 376.000,337.800 376.000 C 338.719 376.000,338.800 375.853,338.800 374.200 C 338.800 372.667,338.919 372.400,339.600 372.400 C 340.398 372.400,340.400 372.133,340.400 278.200 C 340.400 184.267,340.398 184.000,339.600 184.000 C 338.859 184.000,338.800 183.733,338.800 180.400 C 338.800 176.827,338.793 176.800,337.800 176.800 C 336.836 176.800,336.800 176.707,336.800 174.200 C 336.800 171.867,336.718 171.600,336.000 171.600 C 335.319 171.600,335.200 171.333,335.200 169.800 C 335.200 168.147,335.119 168.000,334.200 168.000 C 333.236 168.000,333.200 167.907,333.200 165.400 C 333.200 163.067,333.118 162.800,332.400 162.800 C 331.813 162.800,331.600 162.533,331.600 161.800 C 331.600 161.000,331.400 160.800,330.600 160.800 C 329.681 160.800,329.600 160.653,329.600 159.000 C 329.600 158.010,329.465 157.221,329.300 157.247 C 328.416 157.387,328.000 157.116,328.000 156.400 C 328.000 155.876,327.733 155.600,327.228 155.600 C 326.732 155.600,326.410 155.278,326.328 154.700 C 326.236 154.053,325.947 153.813,325.300 153.848 C 324.497 153.891,324.400 153.708,324.400 152.148 C 324.400 150.667,324.278 150.400,323.600 150.400 C 323.013 150.400,322.800 150.133,322.800 149.400 C 322.800 148.600,322.600 148.400,321.800 148.400 C 321.067 148.400,320.800 148.187,320.800 147.600 C 320.800 147.067,320.533 146.800,320.000 146.800 C 319.413 146.800,319.200 146.533,319.200 145.800 C 319.200 145.000,319.000 144.800,318.200 144.800 C 317.467 144.800,317.200 144.587,317.200 144.000 C 317.200 143.319,316.933 143.200,315.400 143.200 C 313.747 143.200,313.600 143.119,313.600 142.200 C 313.600 141.650,313.465 141.221,313.300 141.247 C 312.416 141.387,312.000 141.116,312.000 140.400 C 312.000 139.876,311.733 139.600,311.228 139.600 C 310.732 139.600,310.410 139.278,310.328 138.700 C 310.215 137.905,310.002 137.814,308.500 137.921 C 306.912 138.034,306.800 137.974,306.800 137.021 C 306.800 136.078,306.663 136.000,305.000 136.000 C 303.467 136.000,303.200 135.881,303.200 135.200 C 303.200 134.519,302.933 134.400,301.400 134.400 C 299.747 134.400,299.600 134.319,299.600 133.400 C 299.600 132.481,299.453 132.400,297.800 132.400 C 296.267 132.400,296.000 132.281,296.000 131.600 C 296.000 130.882,295.733 130.800,293.400 130.800 C 290.893 130.800,290.800 130.764,290.800 129.800 C 290.800 128.807,290.773 128.800,287.200 128.800 C 283.867 128.800,283.600 128.741,283.600 128.000 C 283.600 127.206,283.333 127.200,245.200 127.200 L 206.800 127.200 206.800 153.000 L 206.800 178.800 208.971 178.800 C 211.048 178.800,212.400 179.442,212.400 180.429 C 212.400 180.633,213.660 180.800,215.200 180.800 L 218.000 180.800 218.000 175.009 C 218.000 169.274,218.010 169.212,219.000 168.563 C 219.851 168.006,220.001 167.601,220.004 165.854 C 220.009 163.341,221.800 161.200,223.896 161.200 C 224.770 161.200,225.165 160.978,225.316 160.400 C 225.491 159.730,225.862 159.600,227.600 159.600 C 229.338 159.600,229.709 159.730,229.884 160.400 C 230.064 161.087,230.430 161.200,232.484 161.200 C 234.538 161.200,234.904 161.313,235.084 162.000 C 235.234 162.574,235.630 162.800,236.484 162.800 C 237.638 162.800,242.400 166.862,242.400 167.846 C 242.400 168.046,242.805 168.388,243.300 168.605 C 243.954 168.892,244.233 169.398,244.322 170.459 C 244.409 171.507,244.663 171.975,245.222 172.122 C 245.650 172.234,246.000 172.591,246.000 172.916 C 246.000 173.241,246.360 173.601,246.800 173.716 C 247.407 173.875,247.600 174.262,247.600 175.317 C 247.600 176.359,247.851 176.872,248.600 177.363 C 249.338 177.847,249.600 178.370,249.600 179.363 C 249.600 180.370,249.800 180.759,250.400 180.916 C 251.014 181.076,251.200 181.462,251.200 182.571 C 251.200 183.725,251.402 184.109,252.200 184.473 C 253.006 184.840,253.200 185.217,253.200 186.418 C 253.200 187.570,253.381 187.954,254.000 188.116 C 254.690 188.296,254.800 188.662,254.800 190.763 C 254.800 192.636,254.935 193.200,255.386 193.200 C 256.239 193.200,256.800 194.500,256.800 196.477 C 256.800 197.774,257.000 198.333,257.600 198.707 C 258.239 199.106,258.400 199.640,258.400 201.357 C 258.400 203.210,258.539 203.599,259.400 204.163 C 260.318 204.765,260.400 205.061,260.400 207.795 C 260.400 210.362,260.510 210.831,261.200 211.200 C 261.951 211.602,262.000 212.038,262.000 218.367 C 262.000 224.770,262.040 225.117,262.800 225.316 C 263.988 225.627,263.988 229.573,262.800 229.884 C 262.091 230.070,262.000 230.430,262.000 233.066 C 262.000 235.993,260.509 238.800,258.954 238.800 C 258.754 238.800,258.412 239.205,258.195 239.700 C 257.820 240.555,257.579 240.600,253.400 240.600 C 249.221 240.600,248.980 240.555,248.605 239.700 C 248.260 238.914,247.913 238.800,245.868 238.800 C 243.862 238.800,243.495 238.685,243.316 238.000 C 243.142 237.336,242.770 237.200,241.127 237.200 C 238.921 237.200,237.600 236.670,237.600 235.786 C 237.600 235.321,236.946 235.200,234.423 235.200 C 231.720 235.200,231.163 235.083,230.696 234.415 C 230.223 233.741,229.589 233.615,226.173 233.515 C 222.526 233.409,222.168 233.328,221.816 232.525 C 221.604 232.043,221.109 231.565,220.716 231.462 C 220.196 231.326,220.000 230.882,220.000 229.837 C 220.000 229.047,219.833 228.400,219.629 228.400 C 218.060 228.400,218.000 227.748,218.000 210.771 C 218.000 196.058,217.935 194.400,217.363 194.400 C 217.012 194.400,216.631 194.040,216.516 193.600 C 216.326 192.872,215.970 192.800,212.586 192.800 C 208.529 192.800,207.600 192.606,207.600 191.757 C 207.600 191.451,207.420 191.200,207.200 191.200 C 206.937 191.200,206.800 201.867,206.800 222.400 C 206.800 250.465,206.958 255.699,207.716 252.800 C 207.877 252.186,208.262 252.000,209.375 252.000 C 210.391 252.000,210.902 251.790,211.083 251.300 C 211.477 250.234,212.018 250.013,214.253 250.006 C 215.967 250.001,216.341 249.868,216.516 249.200 C 216.717 248.433,217.062 248.400,225.000 248.400 C 232.938 248.400,233.283 248.433,233.484 249.200 C 233.621 249.725,234.030 250.000,234.673 250.000 C 235.941 250.000,237.200 250.681,237.200 251.367 C 237.200 251.664,237.560 252.001,238.000 252.116 C 238.440 252.231,238.800 252.612,238.800 252.963 C 238.800 253.313,239.064 253.600,239.386 253.600 C 240.117 253.600,240.800 254.829,240.800 256.147 C 240.800 256.795,241.081 257.235,241.600 257.400 C 242.361 257.641,242.400 258.005,242.400 264.824 C 242.400 271.560,242.352 272.023,241.600 272.493 C 241.122 272.791,240.800 273.426,240.800 274.068 C 240.800 275.121,239.907 276.400,239.171 276.400 C 238.967 276.400,238.800 277.047,238.800 277.837 C 238.800 278.915,238.609 279.325,238.037 279.474 C 237.617 279.584,237.181 280.031,237.067 280.467 C 236.953 280.903,236.486 281.357,236.030 281.476 C 235.573 281.596,235.200 281.959,235.200 282.284 C 235.200 282.609,234.840 282.969,234.400 283.084 C 233.960 283.199,233.600 283.536,233.600 283.833 C 233.600 284.528,232.335 285.200,231.026 285.200 C 230.354 285.200,230.000 285.420,230.000 285.837 C 230.000 286.188,229.640 286.569,229.200 286.684 C 228.760 286.799,228.400 287.039,228.400 287.218 C 228.400 287.912,227.091 288.800,226.068 288.800 C 225.426 288.800,224.791 289.122,224.493 289.600 C 224.148 290.152,223.560 290.400,222.597 290.400 C 221.637 290.400,221.200 290.583,221.200 290.986 C 221.200 292.006,219.761 292.400,216.040 292.400 C 212.838 292.400,212.380 292.491,212.000 293.200 C 211.594 293.959,211.162 294.000,203.600 294.000 C 196.038 294.000,195.606 293.959,195.200 293.200 C 194.869 292.581,194.362 292.400,192.960 292.400 C 190.907 292.400,189.600 291.850,189.600 290.986 C 189.600 290.583,189.163 290.400,188.203 290.400 C 187.240 290.400,186.652 290.152,186.307 289.600 C 186.009 289.122,185.374 288.800,184.732 288.800 C 183.411 288.800,182.400 287.853,182.400 286.614 C 182.400 286.103,181.878 285.126,181.240 284.442 L 180.079 283.200 172.266 283.200 C 164.874 283.200,164.441 283.242,164.206 283.980 C 164.070 284.408,163.608 284.870,163.180 285.006 C 162.751 285.143,162.400 285.529,162.400 285.864 C 162.400 286.200,162.040 286.569,161.600 286.684 C 160.857 286.878,160.800 287.230,160.800 291.600 C 160.800 295.970,160.857 296.322,161.600 296.516 C 162.040 296.631,162.400 297.000,162.400 297.336 C 162.400 297.671,162.751 298.057,163.180 298.194 C 163.608 298.330,164.070 298.792,164.206 299.220 C 164.449 299.985,165.113 300.000,199.664 300.000 C 234.538 300.000,234.877 300.008,235.084 300.800 C 235.264 301.486,235.630 301.600,237.655 301.600 C 239.786 301.600,240.062 301.698,240.473 302.600 C 240.844 303.414,241.214 303.600,242.464 303.600 C 243.309 303.600,244.000 303.762,244.000 303.960 C 244.000 304.429,246.771 307.200,247.240 307.200 C 247.438 307.200,247.600 307.476,247.600 307.813 C 247.600 308.149,247.915 308.541,248.300 308.683 C 249.368 309.077,249.587 309.618,249.594 311.873 C 249.599 313.592,249.737 313.989,250.400 314.200 C 251.141 314.435,251.200 314.805,251.200 319.200 C 251.200 323.595,251.141 323.965,250.400 324.200 C 249.803 324.389,249.600 324.805,249.600 325.837 C 249.600 326.944,249.401 327.296,248.600 327.600 C 247.833 327.892,247.600 328.266,247.600 329.210 C 247.600 330.916,245.371 333.200,243.706 333.200 C 242.830 333.200,242.435 333.422,242.284 334.000 C 242.169 334.440,241.788 334.800,241.437 334.800 C 241.087 334.800,240.800 334.967,240.800 335.171 C 240.800 336.831,241.531 336.800,202.068 336.800 C 165.026 336.800,164.587 336.809,164.093 337.600 C 163.818 338.040,163.325 338.400,162.997 338.400 C 162.000 338.400,162.169 342.273,163.180 342.594 C 163.608 342.730,164.070 343.192,164.206 343.620 C 164.343 344.049,164.729 344.400,165.064 344.400 C 165.400 344.400,165.769 344.760,165.884 345.200 C 166.091 345.993,166.430 346.000,202.818 346.000 C 241.480 346.000,240.800 345.971,240.800 347.629 C 240.800 347.833,241.401 348.000,242.135 348.000 C 243.216 348.000,243.768 348.340,245.035 349.789 C 245.896 350.773,246.825 351.583,247.100 351.589 C 247.411 351.596,247.600 352.180,247.600 353.136 C 247.600 354.386,247.786 354.756,248.600 355.127 C 249.386 355.485,249.600 355.879,249.600 356.964 C 249.600 357.995,249.803 358.411,250.400 358.600 C 251.141 358.835,251.200 359.205,251.200 363.600 C 251.200 367.995,251.141 368.365,250.400 368.600 C 249.803 368.789,249.600 369.205,249.600 370.236 C 249.600 371.321,249.386 371.715,248.600 372.073 C 247.786 372.444,247.600 372.814,247.600 374.064 C 247.600 375.020,247.411 375.604,247.100 375.611 C 246.825 375.617,245.896 376.427,245.035 377.411 C 243.768 378.860,243.216 379.200,242.135 379.200 C 241.401 379.200,240.800 379.367,240.800 379.571 C 240.800 381.242,241.964 381.200,195.600 381.200 C 149.416 381.200,150.400 381.234,150.400 379.618 C 150.400 379.439,150.040 379.199,149.600 379.084 C 147.168 378.448,149.351 369.200,151.934 369.200 C 152.139 369.200,152.401 368.841,152.515 368.402 C 152.722 367.612,153.136 367.603,194.262 367.502 L 235.800 367.400 235.927 365.856 C 236.019 364.729,236.263 364.256,236.827 364.109 C 237.819 363.850,237.819 363.350,236.827 363.091 C 236.263 362.944,236.019 362.471,235.927 361.344 L 235.800 359.800 198.662 359.698 C 161.936 359.597,161.522 359.587,161.315 358.798 C 161.159 358.200,160.769 358.000,159.757 358.000 C 158.840 358.000,158.246 357.743,157.907 357.200 C 157.609 356.722,156.974 356.400,156.332 356.400 C 155.309 356.400,154.000 355.512,154.000 354.818 C 154.000 354.639,153.640 354.399,153.200 354.284 C 152.574 354.121,152.400 353.738,152.400 352.532 C 152.400 351.316,152.209 350.906,151.500 350.595 C 150.846 350.308,150.567 349.802,150.478 348.741 C 150.391 347.693,150.137 347.225,149.578 347.078 C 148.360 346.760,148.380 336.035,149.600 335.716 C 150.200 335.559,150.400 335.170,150.400 334.163 C 150.400 333.170,150.662 332.647,151.400 332.163 C 152.149 331.672,152.400 331.159,152.400 330.117 C 152.400 329.062,152.593 328.675,153.200 328.516 C 153.640 328.401,154.000 328.161,154.000 327.982 C 154.000 327.288,155.309 326.400,156.332 326.400 C 156.974 326.400,157.609 326.078,157.907 325.600 C 158.252 325.048,158.840 324.800,159.803 324.800 C 160.763 324.800,161.200 324.617,161.200 324.214 C 161.200 322.848,162.489 322.800,199.374 322.800 L 236.000 322.800 236.000 321.363 C 236.000 320.262,236.187 319.876,236.800 319.716 C 237.816 319.450,237.829 318.953,236.827 318.691 C 236.263 318.544,236.019 318.071,235.927 316.944 L 235.800 315.400 200.462 315.298 C 165.536 315.197,165.122 315.186,164.915 314.398 C 164.737 313.714,164.368 313.600,162.343 313.600 C 160.191 313.600,159.946 313.511,159.600 312.600 C 159.309 311.835,158.933 311.600,158.001 311.600 C 156.768 311.600,152.400 307.890,152.400 306.843 C 152.400 306.599,152.194 306.400,151.943 306.400 C 150.907 306.400,148.809 303.810,148.804 302.527 C 148.801 301.607,148.578 301.183,148.000 301.000 C 147.231 300.756,147.200 300.395,147.200 291.600 C 147.200 282.805,147.231 282.444,148.000 282.200 C 148.578 282.017,148.801 281.593,148.804 280.673 C 148.809 279.390,150.907 276.800,151.943 276.800 C 152.194 276.800,152.400 276.601,152.400 276.357 C 152.400 274.896,156.797 271.600,158.745 271.600 C 160.397 271.600,160.812 271.442,161.363 270.600 L 162.018 269.600 175.809 269.600 C 187.067 269.600,189.600 269.502,189.600 269.064 C 189.600 268.770,190.050 268.323,190.600 268.073 C 191.150 267.822,191.600 267.355,191.600 267.036 C 191.600 266.716,191.960 266.340,192.400 266.200 C 193.192 265.949,193.200 265.595,193.200 229.373 L 193.200 192.800 191.296 192.800 C 189.826 192.800,189.279 192.982,188.893 193.600 C 188.491 194.243,187.960 194.400,186.184 194.400 C 184.445 194.400,183.920 194.549,183.717 195.100 C 183.364 196.056,182.797 196.387,181.500 196.394 L 180.400 196.400 180.400 213.367 C 180.400 230.448,180.337 231.600,179.403 231.600 C 179.122 231.600,178.597 232.050,178.237 232.600 C 177.610 233.556,177.406 233.600,173.591 233.600 C 170.446 233.600,169.600 233.718,169.600 234.157 C 169.600 234.962,168.689 235.200,165.613 235.200 C 163.152 235.200,162.829 235.296,162.237 236.200 C 161.676 237.056,161.280 237.200,159.487 237.200 C 157.826 237.200,157.289 237.365,156.893 238.000 C 156.491 238.643,155.960 238.800,154.184 238.800 C 152.445 238.800,151.920 238.949,151.717 239.500 C 151.283 240.676,150.770 240.788,145.780 240.794 C 140.454 240.801,140.000 240.622,140.000 238.520 C 140.000 237.794,139.833 237.200,139.629 237.200 C 138.651 237.200,138.000 235.848,138.000 233.818 C 138.000 232.030,137.873 231.660,137.200 231.484 C 136.449 231.288,136.400 230.938,136.400 225.800 C 136.400 220.662,136.449 220.312,137.200 220.116 C 137.931 219.925,138.000 219.570,138.000 215.982 C 138.000 212.123,138.416 210.800,139.629 210.800 C 139.833 210.800,140.000 209.343,140.000 207.563 C 140.000 204.662,140.083 204.303,140.800 204.116 C 141.514 203.929,141.600 203.570,141.600 200.763 C 141.600 197.850,141.674 197.570,142.600 196.963 C 143.349 196.472,143.600 195.959,143.600 194.917 C 143.600 193.862,143.793 193.475,144.400 193.316 C 145.086 193.136,145.200 192.770,145.200 190.743 C 145.200 188.591,145.289 188.346,146.200 188.000 C 147.012 187.691,147.200 187.348,147.200 186.172 C 147.200 185.062,147.386 184.676,148.000 184.516 C 148.560 184.369,148.800 183.970,148.800 183.186 C 148.800 181.660,149.176 180.800,149.843 180.800 C 150.174 180.800,150.400 180.384,150.400 179.774 C 150.400 178.432,151.077 177.200,151.814 177.200 C 152.195 177.200,152.400 176.791,152.400 176.033 C 152.400 174.671,152.752 173.600,153.200 173.600 C 154.130 173.600,156.000 171.196,156.000 170.002 C 156.000 169.062,156.211 168.670,156.800 168.516 C 157.240 168.401,157.600 168.054,157.600 167.745 C 157.600 167.436,158.035 166.985,158.566 166.743 C 159.097 166.501,159.621 165.964,159.729 165.551 C 159.875 164.992,160.293 164.800,161.363 164.800 C 162.153 164.800,162.800 164.633,162.800 164.429 C 162.800 163.672,164.093 162.800,165.214 162.800 C 165.962 162.800,166.523 162.517,166.800 162.000 C 167.540 160.618,178.400 160.845,178.400 162.243 C 178.400 162.549,178.567 162.800,178.771 162.800 C 180.231 162.800,180.400 163.883,180.400 173.229 L 180.400 182.400 183.104 182.400 C 185.374 182.400,185.888 182.272,186.307 181.600 C 186.710 180.955,187.240 180.800,189.041 180.800 C 190.926 180.800,191.307 180.677,191.481 180.013 C 191.594 179.581,192.027 179.118,192.443 178.986 C 193.175 178.754,193.200 177.905,193.200 152.973 L 193.200 127.200 155.800 127.200 C 118.667 127.200,118.400 127.206,118.400 128.000 " stroke="none" fill="#146434" fill-rule="evenodd"></path><path id="path2" d="" stroke="none" fill="#1cc848" fill-rule="evenodd"></path><path id="path3" d="M193.200 152.973 C 193.200 177.905,193.175 178.754,192.443 178.986 C 192.027 179.118,191.594 179.581,191.481 180.013 C 191.307 180.677,190.926 180.800,189.041 180.800 C 187.240 180.800,186.710 180.955,186.307 181.600 C 185.888 182.272,185.374 182.400,183.104 182.400 L 180.400 182.400 180.400 173.229 C 180.400 163.883,180.231 162.800,178.771 162.800 C 178.567 162.800,178.400 162.549,178.400 162.243 C 178.400 160.845,167.540 160.618,166.800 162.000 C 166.523 162.517,165.962 162.800,165.214 162.800 C 164.093 162.800,162.800 163.672,162.800 164.429 C 162.800 164.633,162.153 164.800,161.363 164.800 C 160.293 164.800,159.875 164.992,159.729 165.551 C 159.621 165.964,159.097 166.501,158.566 166.743 C 158.035 166.985,157.600 167.436,157.600 167.745 C 157.600 168.054,157.240 168.401,156.800 168.516 C 156.211 168.670,156.000 169.062,156.000 170.002 C 156.000 171.196,154.130 173.600,153.200 173.600 C 152.752 173.600,152.400 174.671,152.400 176.033 C 152.400 176.791,152.195 177.200,151.814 177.200 C 151.077 177.200,150.400 178.432,150.400 179.774 C 150.400 180.384,150.174 180.800,149.843 180.800 C 149.176 180.800,148.800 181.660,148.800 183.186 C 148.800 183.970,148.560 184.369,148.000 184.516 C 147.386 184.676,147.200 185.062,147.200 186.172 C 147.200 187.348,147.012 187.691,146.200 188.000 C 145.289 188.346,145.200 188.591,145.200 190.743 C 145.200 192.770,145.086 193.136,144.400 193.316 C 143.793 193.475,143.600 193.862,143.600 194.917 C 143.600 195.959,143.349 196.472,142.600 196.963 C 141.674 197.570,141.600 197.850,141.600 200.763 C 141.600 203.570,141.514 203.929,140.800 204.116 C 140.083 204.303,140.000 204.662,140.000 207.563 C 140.000 209.343,139.833 210.800,139.629 210.800 C 138.416 210.800,138.000 212.123,138.000 215.982 C 138.000 219.570,137.931 219.925,137.200 220.116 C 136.449 220.312,136.400 220.662,136.400 225.800 C 136.400 230.938,136.449 231.288,137.200 231.484 C 137.873 231.660,138.000 232.030,138.000 233.818 C 138.000 235.848,138.651 237.200,139.629 237.200 C 139.833 237.200,140.000 237.794,140.000 238.520 C 140.000 240.622,140.454 240.801,145.780 240.794 C 150.770 240.788,151.283 240.676,151.717 239.500 C 151.920 238.949,152.445 238.800,154.184 238.800 C 155.960 238.800,156.491 238.643,156.893 238.000 C 157.289 237.365,157.826 237.200,159.487 237.200 C 161.280 237.200,161.676 237.056,162.237 236.200 C 162.829 235.296,163.152 235.200,165.613 235.200 C 168.689 235.200,169.600 234.962,169.600 234.157 C 169.600 233.718,170.446 233.600,173.591 233.600 C 177.406 233.600,177.610 233.556,178.237 232.600 C 178.597 232.050,179.122 231.600,179.403 231.600 C 180.337 231.600,180.400 230.448,180.400 213.367 L 180.400 196.400 181.500 196.394 C 182.797 196.387,183.364 196.056,183.717 195.100 C 183.920 194.549,184.445 194.400,186.184 194.400 C 187.960 194.400,188.491 194.243,188.893 193.600 C 189.279 192.982,189.826 192.800,191.296 192.800 L 193.200 192.800 193.200 229.373 C 193.200 265.595,193.192 265.949,192.400 266.200 C 191.960 266.340,191.600 266.716,191.600 267.036 C 191.600 267.355,191.150 267.822,190.600 268.073 C 190.050 268.323,189.600 268.770,189.600 269.064 C 189.600 269.502,187.067 269.600,175.809 269.600 L 162.018 269.600 161.363 270.600 C 160.812 271.442,160.397 271.600,158.745 271.600 C 156.797 271.600,152.400 274.896,152.400 276.357 C 152.400 276.601,152.194 276.800,151.943 276.800 C 150.907 276.800,148.809 279.390,148.804 280.673 C 148.801 281.593,148.578 282.017,148.000 282.200 C 146.752 282.596,146.752 300.604,148.000 301.000 C 148.578 301.183,148.801 301.607,148.804 302.527 C 148.809 303.810,150.907 306.400,151.943 306.400 C 152.194 306.400,152.400 306.599,152.400 306.843 C 152.400 307.890,156.768 311.600,158.001 311.600 C 158.933 311.600,159.309 311.835,159.600 312.600 C 159.946 313.511,160.191 313.600,162.343 313.600 C 164.368 313.600,164.737 313.714,164.915 314.398 C 165.122 315.186,165.536 315.197,200.462 315.298 L 235.800 315.400 235.927 316.944 C 236.019 318.071,236.263 318.544,236.827 318.691 C 237.829 318.953,237.816 319.450,236.800 319.716 C 236.187 319.876,236.000 320.262,236.000 321.363 L 236.000 322.800 199.374 322.800 C 162.489 322.800,161.200 322.848,161.200 324.214 C 161.200 324.617,160.763 324.800,159.803 324.800 C 158.840 324.800,158.252 325.048,157.907 325.600 C 157.609 326.078,156.974 326.400,156.332 326.400 C 155.309 326.400,154.000 327.288,154.000 327.982 C 154.000 328.161,153.640 328.401,153.200 328.516 C 152.593 328.675,152.400 329.062,152.400 330.117 C 152.400 331.159,152.149 331.672,151.400 332.163 C 150.662 332.647,150.400 333.170,150.400 334.163 C 150.400 335.170,150.200 335.559,149.600 335.716 C 148.380 336.035,148.360 346.760,149.578 347.078 C 150.137 347.225,150.391 347.693,150.478 348.741 C 150.567 349.802,150.846 350.308,151.500 350.595 C 152.209 350.906,152.400 351.316,152.400 352.532 C 152.400 353.738,152.574 354.121,153.200 354.284 C 153.640 354.399,154.000 354.639,154.000 354.818 C 154.000 355.512,155.309 356.400,156.332 356.400 C 156.974 356.400,157.609 356.722,157.907 357.200 C 158.246 357.743,158.840 358.000,159.757 358.000 C 160.769 358.000,161.159 358.200,161.315 358.798 C 161.522 359.587,161.936 359.597,198.662 359.698 L 235.800 359.800 235.927 361.344 C 236.019 362.471,236.263 362.944,236.827 363.091 C 237.819 363.350,237.819 363.850,236.827 364.109 C 236.263 364.256,236.019 364.729,235.927 365.856 L 235.800 367.400 194.262 367.502 C 153.136 367.603,152.722 367.612,152.515 368.402 C 152.401 368.841,152.139 369.200,151.934 369.200 C 149.351 369.200,147.168 378.448,149.600 379.084 C 150.040 379.199,150.400 379.439,150.400 379.618 C 150.400 381.234,149.416 381.200,195.600 381.200 C 241.964 381.200,240.800 381.242,240.800 379.571 C 240.800 379.367,241.401 379.200,242.135 379.200 C 243.216 379.200,243.768 378.860,245.035 377.411 C 245.896 376.427,246.825 375.617,247.100 375.611 C 247.411 375.604,247.600 375.020,247.600 374.064 C 247.600 372.814,247.786 372.444,248.600 372.073 C 249.386 371.715,249.600 371.321,249.600 370.236 C 249.600 369.205,249.803 368.789,250.400 368.600 C 251.141 368.365,251.200 367.995,251.200 363.600 C 251.200 359.205,251.141 358.835,250.400 358.600 C 249.803 358.411,249.600 357.995,249.600 356.964 C 249.600 355.879,249.386 355.485,248.600 355.127 C 247.786 354.756,247.600 354.386,247.600 353.136 C 247.600 352.180,247.411 351.596,247.100 351.589 C 246.825 351.583,245.896 350.773,245.035 349.789 C 243.768 348.340,243.216 348.000,242.135 348.000 C 241.401 348.000,240.800 347.833,240.800 347.629 C 240.800 345.971,241.480 346.000,202.818 346.000 C 166.430 346.000,166.091 345.993,165.884 345.200 C 165.769 344.760,165.400 344.400,165.064 344.400 C 164.729 344.400,164.343 344.049,164.206 343.620 C 164.070 343.192,163.608 342.730,163.180 342.594 C 162.169 342.273,162.000 338.400,162.997 338.400 C 163.325 338.400,163.818 338.040,164.093 337.600 C 164.587 336.809,165.026 336.800,202.068 336.800 C 241.531 336.800,240.800 336.831,240.800 335.171 C 240.800 334.967,241.087 334.800,241.437 334.800 C 241.788 334.800,242.169 334.440,242.284 334.000 C 242.435 333.422,242.830 333.200,243.706 333.200 C 245.371 333.200,247.600 330.916,247.600 329.210 C 247.600 328.266,247.833 327.892,248.600 327.600 C 249.401 327.296,249.600 326.944,249.600 325.837 C 249.600 324.805,249.803 324.389,250.400 324.200 C 251.141 323.965,251.200 323.595,251.200 319.200 C 251.200 314.805,251.141 314.435,250.400 314.200 C 249.737 313.989,249.599 313.592,249.594 311.873 C 249.587 309.618,249.368 309.077,248.300 308.683 C 247.915 308.541,247.600 308.149,247.600 307.813 C 247.600 307.476,247.438 307.200,247.240 307.200 C 246.771 307.200,244.000 304.429,244.000 303.960 C 244.000 303.762,243.309 303.600,242.464 303.600 C 241.214 303.600,240.844 303.414,240.473 302.600 C 240.062 301.698,239.786 301.600,237.655 301.600 C 235.630 301.600,235.264 301.486,235.084 300.800 C 234.877 300.008,234.538 300.000,199.664 300.000 C 165.113 300.000,164.449 299.985,164.206 299.220 C 164.070 298.792,163.608 298.330,163.180 298.194 C 162.751 298.057,162.400 297.671,162.400 297.336 C 162.400 297.000,162.040 296.631,161.600 296.516 C 160.857 296.322,160.800 295.970,160.800 291.600 C 160.800 287.230,160.857 286.878,161.600 286.684 C 162.040 286.569,162.400 286.200,162.400 285.864 C 162.400 285.529,162.751 285.143,163.180 285.006 C 163.608 284.870,164.070 284.408,164.206 283.980 C 164.441 283.242,164.874 283.200,172.266 283.200 L 180.079 283.200 181.240 284.442 C 181.878 285.126,182.400 286.103,182.400 286.614 C 182.400 287.853,183.411 288.800,184.732 288.800 C 185.374 288.800,186.009 289.122,186.307 289.600 C 186.652 290.152,187.240 290.400,188.203 290.400 C 189.163 290.400,189.600 290.583,189.600 290.986 C 189.600 291.850,190.907 292.400,192.960 292.400 C 194.362 292.400,194.869 292.581,195.200 293.200 C 195.606 293.959,196.038 294.000,203.600 294.000 C 211.162 294.000,211.594 293.959,212.000 293.200 C 212.380 292.491,212.838 292.400,216.040 292.400 C 219.761 292.400,221.200 292.006,221.200 290.986 C 221.200 290.583,221.637 290.400,222.597 290.400 C 223.560 290.400,224.148 290.152,224.493 289.600 C 224.791 289.122,225.426 288.800,226.068 288.800 C 227.091 288.800,228.400 287.912,228.400 287.218 C 228.400 287.039,228.760 286.799,229.200 286.684 C 229.640 286.569,230.000 286.188,230.000 285.837 C 230.000 285.420,230.354 285.200,231.026 285.200 C 232.335 285.200,233.600 284.528,233.600 283.833 C 233.600 283.536,233.960 283.199,234.400 283.084 C 234.840 282.969,235.200 282.609,235.200 282.284 C 235.200 281.959,235.573 281.596,236.030 281.476 C 236.486 281.357,236.953 280.903,237.067 280.467 C 237.181 280.031,237.617 279.584,238.037 279.474 C 238.609 279.325,238.800 278.915,238.800 277.837 C 238.800 277.047,238.967 276.400,239.171 276.400 C 239.907 276.400,240.800 275.121,240.800 274.068 C 240.800 273.426,241.122 272.791,241.600 272.493 C 242.352 272.023,242.400 271.560,242.400 264.824 C 242.400 258.005,242.361 257.641,241.600 257.400 C 241.081 257.235,240.800 256.795,240.800 256.147 C 240.800 254.861,240.123 253.600,239.433 253.600 C 239.136 253.600,238.799 253.240,238.684 252.800 C 238.569 252.360,238.188 252.000,237.837 252.000 C 237.487 252.000,237.200 251.736,237.200 251.414 C 237.200 250.687,235.973 250.000,234.673 250.000 C 234.030 250.000,233.621 249.725,233.484 249.200 C 233.283 248.433,232.938 248.400,225.000 248.400 C 217.062 248.400,216.717 248.433,216.516 249.200 C 216.341 249.868,215.967 250.001,214.253 250.006 C 212.018 250.013,211.477 250.234,211.083 251.300 C 210.902 251.790,210.391 252.000,209.375 252.000 C 208.262 252.000,207.877 252.186,207.716 252.800 C 206.958 255.699,206.800 250.465,206.800 222.400 C 206.800 201.867,206.937 191.200,207.200 191.200 C 207.420 191.200,207.600 191.451,207.600 191.757 C 207.600 192.606,208.529 192.800,212.586 192.800 C 215.970 192.800,216.326 192.872,216.516 193.600 C 216.631 194.040,217.012 194.400,217.363 194.400 C 217.935 194.400,218.000 196.058,218.000 210.771 C 218.000 227.748,218.060 228.400,219.629 228.400 C 219.833 228.400,220.000 229.047,220.000 229.837 C 220.000 230.882,220.196 231.326,220.716 231.462 C 221.109 231.565,221.604 232.043,221.816 232.525 C 222.168 233.328,222.526 233.409,226.173 233.515 C 229.589 233.615,230.223 233.741,230.696 234.415 C 231.163 235.083,231.720 235.200,234.423 235.200 C 236.946 235.200,237.600 235.321,237.600 235.786 C 237.600 236.670,238.921 237.200,241.127 237.200 C 242.770 237.200,243.142 237.336,243.316 238.000 C 243.495 238.685,243.862 238.800,245.868 238.800 C 247.913 238.800,248.260 238.914,248.605 239.700 C 248.980 240.555,249.221 240.600,253.400 240.600 C 257.579 240.600,257.820 240.555,258.195 239.700 C 258.412 239.205,258.754 238.800,258.954 238.800 C 260.509 238.800,262.000 235.993,262.000 233.066 C 262.000 230.430,262.091 230.070,262.800 229.884 C 263.470 229.709,263.600 229.338,263.600 227.600 C 263.600 225.862,263.470 225.491,262.800 225.316 C 262.040 225.117,262.000 224.770,262.000 218.367 C 262.000 212.038,261.951 211.602,261.200 211.200 C 260.510 210.831,260.400 210.362,260.400 207.795 C 260.400 205.061,260.318 204.765,259.400 204.163 C 258.539 203.599,258.400 203.210,258.400 201.357 C 258.400 199.640,258.239 199.106,257.600 198.707 C 257.000 198.333,256.800 197.774,256.800 196.477 C 256.800 194.500,256.239 193.200,255.386 193.200 C 254.935 193.200,254.800 192.636,254.800 190.763 C 254.800 188.662,254.690 188.296,254.000 188.116 C 253.381 187.954,253.200 187.570,253.200 186.418 C 253.200 185.217,253.006 184.840,252.200 184.473 C 251.402 184.109,251.200 183.725,251.200 182.571 C 251.200 181.462,251.014 181.076,250.400 180.916 C 249.800 180.759,249.600 180.370,249.600 179.363 C 249.600 178.370,249.338 177.847,248.600 177.363 C 247.851 176.872,247.600 176.359,247.600 175.317 C 247.600 174.262,247.407 173.875,246.800 173.716 C 246.360 173.601,246.000 173.241,246.000 172.916 C 246.000 172.591,245.650 172.234,245.222 172.122 C 244.663 171.975,244.409 171.507,244.322 170.459 C 244.233 169.398,243.954 168.892,243.300 168.605 C 242.805 168.388,242.400 168.046,242.400 167.846 C 242.400 166.862,237.638 162.800,236.484 162.800 C 235.630 162.800,235.234 162.574,235.084 162.000 C 234.904 161.313,234.538 161.200,232.484 161.200 C 230.430 161.200,230.064 161.087,229.884 160.400 C 229.709 159.730,229.338 159.600,227.600 159.600 C 225.862 159.600,225.491 159.730,225.316 160.400 C 225.163 160.984,224.768 161.201,223.853 161.204 C 221.774 161.211,220.000 163.372,220.000 165.897 C 220.000 167.601,219.847 168.008,219.000 168.563 C 218.010 169.212,218.000 169.274,218.000 175.009 L 218.000 180.800 215.200 180.800 C 213.660 180.800,212.400 180.633,212.400 180.429 C 212.400 179.442,211.048 178.800,208.971 178.800 L 206.800 178.800 206.800 153.000 C 206.800 136.067,206.663 127.200,206.400 127.200 C 206.137 127.200,206.000 136.057,206.000 152.971 C 206.000 182.106,205.750 180.000,209.214 180.000 C 210.762 180.000,211.261 180.167,211.600 180.800 C 211.973 181.497,212.438 181.600,215.200 181.600 C 219.213 181.600,219.200 181.622,219.200 174.723 C 219.200 169.826,219.265 169.352,220.000 168.893 C 220.617 168.508,220.800 167.959,220.802 166.497 C 220.804 164.130,222.512 162.000,224.406 162.000 C 225.162 162.000,225.722 161.719,226.000 161.200 C 226.279 160.679,226.838 160.400,227.600 160.400 C 228.362 160.400,228.921 160.679,229.200 161.200 C 229.545 161.845,230.038 162.000,231.742 162.000 C 233.498 162.000,234.003 162.169,234.725 163.000 C 235.203 163.550,236.004 164.000,236.505 164.000 C 237.796 164.000,243.200 169.317,243.200 170.587 C 243.200 171.179,243.878 172.215,245.000 173.337 C 246.005 174.342,246.800 175.513,246.800 175.988 C 246.800 176.455,247.250 177.255,247.800 177.765 C 248.381 178.303,248.800 179.135,248.800 179.750 C 248.800 180.332,249.160 181.116,249.600 181.493 C 250.041 181.870,250.400 182.673,250.400 183.280 C 250.400 184.014,250.734 184.600,251.400 185.037 C 252.116 185.506,252.400 186.050,252.400 186.950 C 252.400 187.774,252.676 188.380,253.200 188.707 C 253.821 189.095,254.000 189.640,254.000 191.141 C 254.000 192.568,254.210 193.266,254.800 193.800 C 255.387 194.331,255.600 195.032,255.600 196.433 C 255.600 197.993,255.783 198.486,256.600 199.129 C 257.433 199.784,257.600 200.256,257.600 201.954 C 257.600 203.560,257.770 204.099,258.400 204.493 C 259.081 204.918,259.200 205.426,259.200 207.899 C 259.200 210.501,259.305 210.896,260.200 211.675 C 261.190 212.536,261.200 212.609,261.200 219.058 C 261.200 225.162,261.250 225.599,262.000 226.000 C 262.521 226.279,262.800 226.838,262.800 227.600 C 262.800 228.362,262.521 228.921,262.000 229.200 C 261.312 229.568,261.200 230.038,261.200 232.546 L 261.200 235.464 259.154 237.532 L 257.107 239.600 253.250 239.600 C 249.826 239.600,249.336 239.510,248.893 238.800 C 248.505 238.179,247.960 238.000,246.459 238.000 C 245.032 238.000,244.334 237.790,243.800 237.200 C 243.273 236.618,242.568 236.400,241.210 236.400 C 239.718 236.400,239.170 236.199,238.475 235.400 C 237.696 234.505,237.301 234.400,234.699 234.400 C 232.226 234.400,231.718 234.281,231.293 233.600 C 230.851 232.892,230.360 232.800,227.017 232.800 C 222.900 232.800,220.807 231.620,220.802 229.296 C 220.801 228.799,220.440 228.084,220.000 227.707 C 219.225 227.043,219.200 226.527,219.200 210.911 L 219.200 194.800 217.600 193.200 L 216.000 191.600 212.364 191.600 C 209.092 191.600,208.656 191.511,208.010 190.713 C 207.395 189.954,207.199 189.903,206.646 190.362 C 205.988 190.908,205.599 252.089,206.243 253.767 C 206.578 254.642,207.494 254.559,208.093 253.600 C 208.420 253.076,209.026 252.800,209.850 252.800 C 210.750 252.800,211.294 252.516,211.763 251.800 C 212.329 250.936,212.715 250.800,214.595 250.800 C 216.362 250.800,216.852 250.650,217.200 250.000 C 217.604 249.244,218.038 249.200,225.000 249.200 C 231.962 249.200,232.396 249.244,232.800 250.000 C 233.065 250.495,233.642 250.802,234.314 250.806 C 235.666 250.813,239.600 254.658,239.600 255.973 C 239.600 256.449,240.050 257.255,240.600 257.765 C 241.585 258.678,241.600 258.786,241.600 264.988 C 241.600 271.228,241.591 271.292,240.600 272.071 C 239.974 272.564,239.600 273.262,239.600 273.940 C 239.600 274.535,239.240 275.330,238.800 275.707 C 238.360 276.084,238.000 276.804,238.000 277.308 C 238.000 278.692,232.273 284.397,230.871 284.409 C 230.126 284.415,229.381 284.903,228.424 286.009 C 227.445 287.141,226.732 287.600,225.953 287.600 C 225.262 287.600,224.568 287.969,224.071 288.600 C 223.538 289.279,222.890 289.600,222.057 289.600 C 221.238 289.600,220.685 289.867,220.400 290.400 C 220.018 291.114,219.562 291.200,216.183 291.200 C 212.641 291.200,212.338 291.265,211.525 292.200 C 210.163 293.767,197.037 293.767,195.675 292.200 C 194.965 291.384,194.439 291.200,192.817 291.200 C 191.238 291.200,190.740 291.035,190.400 290.400 C 190.103 289.844,189.562 289.600,188.632 289.600 C 187.644 289.600,187.120 289.337,186.637 288.600 C 186.181 287.904,185.620 287.600,184.791 287.600 C 183.773 287.600,183.600 287.448,183.600 286.553 C 183.600 285.870,183.060 284.966,182.047 283.953 L 180.494 282.400 172.479 282.400 L 164.464 282.400 162.032 284.832 L 159.600 287.264 159.600 291.600 L 159.600 295.936 162.032 298.368 L 164.464 300.800 199.336 300.800 C 233.774 300.800,234.214 300.810,234.707 301.600 C 235.094 302.220,235.640 302.400,237.134 302.400 C 238.672 302.400,239.250 302.602,240.000 303.400 C 240.517 303.950,241.365 304.400,241.884 304.400 C 243.910 304.400,248.800 310.030,248.800 312.362 C 248.800 313.962,248.963 314.459,249.600 314.800 C 250.316 315.183,250.400 315.638,250.400 319.118 C 250.400 322.574,250.311 323.063,249.600 323.507 C 249.130 323.801,248.800 324.440,248.800 325.058 C 248.800 325.665,248.378 326.500,247.800 327.035 C 247.250 327.545,246.800 328.401,246.800 328.939 C 246.800 330.339,244.748 332.398,243.340 332.409 C 242.515 332.416,241.820 332.858,240.824 334.009 L 239.448 335.600 202.005 335.600 L 164.562 335.600 163.081 337.117 C 160.693 339.563,160.899 341.681,163.809 344.591 L 166.017 346.800 202.537 346.800 L 239.056 346.800 239.925 347.800 C 240.412 348.360,241.228 348.800,241.778 348.800 C 243.123 348.800,246.800 352.477,246.800 353.822 C 246.800 354.372,247.240 355.188,247.800 355.675 C 248.423 356.217,248.800 356.968,248.800 357.669 C 248.800 358.360,249.108 358.986,249.600 359.293 C 250.309 359.736,250.400 360.226,250.400 363.600 C 250.400 366.974,250.309 367.464,249.600 367.907 C 249.108 368.214,248.800 368.840,248.800 369.531 C 248.800 370.232,248.423 370.983,247.800 371.525 C 247.240 372.012,246.800 372.828,246.800 373.378 C 246.800 374.723,243.123 378.400,241.778 378.400 C 241.228 378.400,240.412 378.840,239.925 379.400 L 239.056 380.400 195.670 380.400 L 152.285 380.400 150.947 379.100 C 148.618 376.838,148.916 373.398,151.687 370.547 L 153.774 368.400 194.807 368.400 C 238.850 368.400,236.800 368.501,236.800 366.323 C 236.800 365.640,237.110 365.013,237.600 364.707 C 238.040 364.432,238.400 363.934,238.400 363.600 C 238.400 363.266,238.040 362.768,237.600 362.493 C 237.110 362.187,236.800 361.560,236.800 360.877 C 236.800 358.705,238.532 358.800,199.134 358.800 C 162.838 358.800,162.423 358.791,162.000 358.000 C 161.703 357.444,161.162 357.200,160.232 357.200 C 159.244 357.200,158.720 356.937,158.237 356.200 C 157.821 355.565,157.208 355.200,156.560 355.200 C 155.218 355.200,153.200 353.179,153.200 351.834 C 153.200 351.240,152.863 350.596,152.400 350.307 C 151.913 350.003,151.600 349.374,151.600 348.701 C 151.600 348.019,151.216 347.261,150.600 346.725 C 149.062 345.388,149.062 337.412,150.600 336.075 C 151.216 335.539,151.600 334.781,151.600 334.099 C 151.600 333.426,151.913 332.797,152.400 332.493 C 152.884 332.190,153.200 331.560,153.200 330.895 C 153.200 329.508,155.142 327.600,156.555 327.600 C 157.209 327.600,157.820 327.237,158.237 326.600 C 158.706 325.884,159.250 325.600,160.150 325.600 C 160.974 325.600,161.580 325.324,161.907 324.800 C 162.401 324.009,162.840 324.000,198.975 324.000 C 238.806 324.000,236.800 324.115,236.800 321.833 C 236.800 321.333,237.160 320.598,237.600 320.200 C 238.040 319.802,238.400 319.277,238.400 319.034 C 238.400 318.791,238.040 318.368,237.600 318.093 C 237.110 317.787,236.800 317.160,236.800 316.477 C 236.800 314.307,238.400 314.400,200.934 314.400 C 166.438 314.400,166.023 314.391,165.600 313.600 C 165.254 312.953,164.762 312.800,163.032 312.800 C 161.191 312.800,160.801 312.660,160.237 311.800 C 159.793 311.122,159.216 310.800,158.447 310.800 C 156.799 310.800,149.600 303.605,149.600 301.958 C 149.600 301.238,149.310 300.673,148.800 300.400 C 148.039 299.993,148.000 299.562,148.000 291.600 C 148.000 283.638,148.039 283.207,148.800 282.800 C 149.310 282.527,149.600 281.962,149.600 281.242 C 149.600 279.033,156.836 272.400,159.247 272.400 C 160.869 272.400,161.287 272.238,161.837 271.400 L 162.492 270.400 176.072 270.400 L 189.652 270.400 191.826 268.226 L 194.000 266.052 194.000 229.240 C 194.000 193.255,193.983 192.419,193.226 192.014 C 191.706 191.200,189.281 191.505,188.563 192.600 C 187.999 193.461,187.610 193.600,185.757 193.600 C 184.040 193.600,183.506 193.761,183.107 194.400 C 182.809 194.878,182.174 195.200,181.532 195.200 C 179.156 195.200,179.200 194.856,179.200 213.386 L 179.200 230.315 178.040 231.558 C 176.898 232.780,176.817 232.800,173.054 232.800 C 169.638 232.800,169.182 232.886,168.800 233.600 C 168.431 234.290,167.962 234.400,165.395 234.400 C 162.661 234.400,162.365 234.482,161.763 235.400 C 161.199 236.260,160.809 236.400,158.968 236.400 C 157.238 236.400,156.746 236.553,156.400 237.200 C 156.053 237.849,155.562 238.000,153.800 238.000 C 152.038 238.000,151.547 238.151,151.200 238.800 C 150.807 239.534,150.362 239.600,145.786 239.600 L 140.800 239.600 140.800 238.396 C 140.800 237.687,140.471 236.911,140.000 236.507 C 139.415 236.006,139.200 235.327,139.200 233.981 C 139.200 232.534,138.986 231.938,138.200 231.200 C 137.249 230.307,137.200 230.041,137.200 225.802 C 137.200 221.546,137.245 221.305,138.200 220.475 C 139.132 219.664,139.200 219.354,139.200 215.892 C 139.200 212.673,139.307 212.086,140.000 211.493 C 140.659 210.929,140.800 210.313,140.800 208.007 C 140.800 205.640,140.924 205.129,141.600 204.707 C 142.287 204.278,142.400 203.774,142.400 201.150 C 142.400 198.330,142.478 198.041,143.400 197.437 C 144.092 196.984,144.400 196.419,144.400 195.605 C 144.400 194.838,144.678 194.279,145.200 194.000 C 145.839 193.658,146.000 193.162,146.000 191.532 C 146.000 189.870,146.185 189.320,147.000 188.565 C 147.550 188.055,148.000 187.208,148.000 186.681 C 148.000 186.155,148.360 185.398,148.800 185.000 C 149.240 184.602,149.600 183.830,149.600 183.284 C 149.600 182.738,150.050 181.875,150.600 181.365 C 151.150 180.855,151.600 180.008,151.600 179.481 C 151.600 178.955,151.960 178.198,152.400 177.800 C 152.840 177.402,153.201 176.609,153.203 176.038 C 153.205 175.313,153.747 174.522,155.003 173.413 C 156.198 172.358,156.800 171.502,156.800 170.860 C 156.800 169.430,160.639 165.600,162.073 165.600 C 162.762 165.600,163.331 165.302,163.600 164.800 C 163.871 164.293,164.438 164.000,165.144 164.000 C 165.818 164.000,166.633 163.603,167.200 163.000 C 168.744 161.357,176.337 161.476,178.031 163.169 L 179.200 164.338 179.200 173.307 C 179.200 183.918,179.073 183.600,183.322 183.600 C 185.717 183.600,186.047 183.501,186.637 182.600 C 187.192 181.753,187.599 181.600,189.306 181.600 C 191.076 181.600,191.481 181.433,192.660 180.220 L 194.000 178.840 194.000 153.020 C 194.000 136.073,193.863 127.200,193.600 127.200 C 193.337 127.200,193.200 136.058,193.200 152.973 " stroke="none" fill="#1c8048" fill-rule="evenodd"></path><path id="path4" d="" stroke="none" fill="#1c644c" fill-rule="evenodd"></path></g></svg>